<svg width="324" height="79" version="1.1" xmlns="http://www.w3.org/2000/svg"><path fill="rgb(0,0,0)" stroke="rgb(0,0,0)" stroke-width="1" opacity="0" d="M 0 0 L 323.5 0 L 324 0.5 L 324 79 L 0.5 79 L 0 78.5 L 0 0 Z M 292 8 L 288 13 L 288 16 L 285 20 L 282 31 L 268 63 L 270 65 L 280 65 L 281 64 Q 283 65 282 62 Q 284 57 286 60 L 296 59 L 298 59 Q 301 59 300 64 Q 301 66 307 65 L 309 65 L 314 64 L 311 54 L 309 52 L 300 27 L 295 17 L 295 14 L 292 8 Z M 93 9 L 92 13 L 93 14 L 93 64 L 97 65 L 98 64 L 104 64 L 105 36 L 106 39 Q 105 41 108 40 L 131 66 L 134 65 L 133 64 L 133 12 L 132 10 L 122 10 L 122 39 L 123 40 L 121 40 L 108 23 L 106 21 L 100 14 L 96 9 L 93 9 Z M 193 9 L 172 64 Q 174 67 180 65 L 182 65 L 185 64 L 184 63 L 185 61 Q 186 58 188 60 L 189 59 L 203 59 L 204 64 L 207 65 Q 215 67 218 64 L 196 11 Q 197 8 193 9 Z M 9 10 L 7 12 L 8 14 L 7 18 L 7 20 L 8 26 L 8 28 L 7 34 L 7 36 L 8 43 L 8 45 L 7 50 L 8 52 L 7 54 L 8 56 L 7 59 L 8 61 L 7 65 L 36 65 L 37 64 Q 38 59 36 58 L 37 56 Q 38 52 36 53 L 34 53 L 32 52 L 20 53 Q 18 50 19 44 L 24 43 L 25 44 L 33 44 L 34 43 L 33 40 L 34 37 Q 35 32 33 31 L 28 32 L 26 31 L 21 32 Q 18 31 19 25 L 24 22 L 28 23 L 30 22 L 33 23 Q 36 24 35 21 L 35 19 L 36 17 L 35 13 Q 37 11 35 10 L 33 11 L 31 10 L 9 10 Z M 42 10 L 41 13 L 42 17 L 41 25 L 41 27 L 42 30 L 41 35 L 42 38 L 41 43 L 41 45 L 42 50 Q 39 53 41 62 L 43 65 L 62 65 L 63 64 Q 64 66 69 65 L 70 64 L 70 55 L 69 53 Q 62 55 61 52 L 55 53 L 53 51 L 53 49 L 54 46 L 53 42 L 53 40 L 54 38 L 53 36 Q 52 31 54 30 L 53 26 L 54 23 L 53 19 L 53 17 L 54 13 L 50 10 L 47 11 L 42 10 Z M 77 10 L 76 11 Q 71 10 73 15 L 74 18 L 73 20 L 74 23 L 73 25 Q 76 26 74 32 L 74 34 L 74 49 L 73 50 L 74 51 L 74 61 L 74 63 L 75 65 L 84 65 Q 87 63 85 57 L 85 55 L 85 19 L 86 18 L 85 16 L 86 13 Q 84 8 83 11 Q 81 9 77 10 Z M 154 10 L 146 13 Q 141 17 139 24 Q 139 33 143 38 L 159 45 Q 161 46 160 51 L 156 54 Q 145 54 141 49 L 139 51 L 139 62 L 156 66 L 166 62 L 171 55 L 171 47 L 172 46 L 169 40 Q 163 33 154 31 Q 150 30 151 24 L 156 21 L 167 24 L 168 12 Q 164 13 162 10 L 158 11 L 154 10 Z M 248 10 L 242 13 L 236 21 Q 237 25 235 27 L 236 34 L 240 39 L 255 45 L 257 48 L 255 53 L 246 53 L 238 49 L 235 51 L 236 54 L 235 62 L 242 65 L 246 65 L 249 66 L 250 65 L 261 64 L 262 63 Q 261 60 264 61 L 268 54 Q 266 47 269 46 L 265 39 L 254 31 L 251 31 L 247 27 L 248 25 L 252 22 Q 258 21 261 24 Q 265 24 265 22 L 264 17 L 265 14 Q 259 9 248 10 Z "></path><path fill="rgb(0,0,0)" stroke="rgb(0,0,0)" stroke-width="1" opacity="0" d="M 194.5 36 L 199 48 L 190 47.5 L 194.5 36 Z "></path><path fill="rgb(0,0,0)" stroke="rgb(0,0,0)" stroke-width="1" opacity="0" d="M 291.5 37 L 295 46.5 Q 293.3 48.8 288.5 48 Q 285.8 46.8 288 45.5 Q 288.3 39.8 291.5 37 Z "></path><path fill="rgb(252,223,90)" stroke="rgb(252,223,90)" stroke-width="1" opacity="0.996078431372549" d="M 251.5 13 L 254.5 14 Q 259.6 13.4 261 16.5 L 258 17.5 L 260 18.5 Q 258.8 21.3 257.5 19 L 250.5 18 L 248 19 L 246.5 22 L 245 21.5 L 245 31.5 L 247.5 34 L 249 34.5 L 248.5 36 L 251.5 35 L 253.5 38 L 256.5 37 L 256.5 39 L 259 40.5 L 258 42.5 L 259.5 43 L 261.5 42 L 265 45.5 L 266 49.5 L 264 52.5 Q 266.8 54.3 262.5 56 L 261 56.5 L 262 57.5 L 258.5 61 L 251.5 63 L 248.5 62 Q 241 62 238 57.5 L 239.5 55 L 244.5 57 L 249.5 56 L 253.5 57 L 261 52.5 L 260 50.5 Q 262.5 49 259 47.5 L 258 45.5 Q 260.3 44.3 257.5 43 L 251.5 40 L 250 40.5 L 248.5 38 L 246.5 39 L 246.5 37 L 244.5 37 L 240 32.5 L 241 29 Q 237.5 30.1 239 22.5 L 245 17.5 Q 244.3 15.3 246.5 16 L 251.5 13 Z M 262 50 L 263 52 Q 264 49 262 50 Z "></path><path fill="rgb(252,223,90)" stroke="rgb(252,223,90)" stroke-width="1" opacity="0.996078431372549" d="M 18.5 14 L 29.5 14 L 30 15.5 L 32 15.5 L 31.5 18 L 27.5 20 L 19.5 20 L 17 22.5 L 16.5 25 L 15.5 23 L 15 27 Q 18.7 25.6 17 31.5 L 16.5 33 Q 18.8 32.3 18 34.5 L 18.5 36 Q 16.3 35.3 17 37.5 L 18.5 37 L 28 35 L 28.5 37 L 29.5 35 L 30 36.5 L 29 39.5 Q 29.5 42.5 22.5 41 L 20.5 41 Q 16.5 40.5 16 43.5 L 17 47.5 L 13 53.5 L 14.5 54 L 15.5 53 L 18.5 56 L 20.5 57 L 32.5 57 L 34 58.5 L 33 62 L 30.5 61 L 23.5 63 L 21.5 63 L 17.5 62 L 15.5 62 Q 11.8 62.8 11 60.5 L 12 55.5 L 11 53.5 L 11 51.5 L 12 48.5 L 11 43.5 L 11 41.5 L 12 39.5 L 11 36.5 L 11 29.5 L 12.5 29 L 12 27.5 L 11 22.5 L 12 20.5 L 11 18.5 L 11.5 16 L 18.5 14 Z M 14 23 L 12 25 L 13 28 L 14 28 L 14 23 Z M 13 31 L 13 32 L 15 32 L 13 31 Z M 28 37 L 26 39 L 28 39 L 28 37 Z M 16 39 L 17 40 L 18 41 Q 19 38 16 39 Z "></path><path fill="rgb(252,223,90)" stroke="rgb(252,223,90)" stroke-width="1" opacity="0.996078431372549" d="M 46 14 L 50 15 L 49 21.5 Q 51.3 22.8 50 27.5 L 50 29.5 Q 51.3 35.3 48 36.5 L 50 37 L 50 45.5 L 48 47.5 L 48 49.5 L 47 52.5 L 48.5 52 L 50 52.5 L 49.5 54 L 53.5 57 L 67 57 L 67 62 L 65.5 62 L 60.5 63 L 58.5 63 L 51.5 62 L 48.5 63 L 45 62 L 44 57.5 L 45 54.5 L 44 51 L 46 50.5 L 44 50 L 46 46.5 L 45 45.5 L 45 35.5 L 45 33.5 L 45 23.5 L 46 22.5 Q 43.8 21.3 45 16.5 L 46 14 Z "></path><path fill="rgb(252,223,90)" stroke="rgb(252,223,90)" stroke-width="1" opacity="0.996078431372549" d="M 78 14 Q 81.8 13 83 15.5 L 83 51.5 L 82 53.5 L 83 55.5 L 82 57.5 L 83 60.5 Q 81.3 64.8 79.5 62 Q 77.3 62.8 78 60.5 L 77 55.5 L 77 53.5 L 78 47.5 Q 75.5 46 77 40.5 L 77 38.5 L 77 17.5 L 78 14 Z "></path><path fill="rgb(252,223,90)" stroke="rgb(252,223,90)" stroke-width="1" opacity="0.996078431372549" d="M 127 14 L 131 15.5 L 131 54.5 L 130 55.5 L 130.5 57 L 128 57.5 L 131 58.5 L 129.5 60 L 124.5 55 Q 121.5 55.9 123 51.5 L 124 49.5 L 122 49.5 Q 124.2 48.2 121.5 47 L 118.5 48 L 117 45.5 L 120 44.5 Q 117.8 43.3 120.5 42 L 122.5 42 L 125 40.5 L 125 38.5 L 126 16.5 L 127 14 Z "></path><path fill="rgb(252,223,90)" stroke="rgb(252,223,90)" stroke-width="1" opacity="0.996078431372549" d="M 154.5 14 L 158.5 15 L 162.5 14 L 164.5 17 L 161.5 19 L 159.5 19 L 155.5 18 L 149 19.5 L 151 20.5 L 149 21 Q 147.1 23.7 148 30.5 L 152 33 Q 150.5 36.7 153.5 36 L 155 35.5 L 154.5 37 L 157.5 36 L 160.5 39 Q 161.7 36.8 163 39.5 L 163.5 42 L 165.5 42 L 167 42.5 L 166 45 L 169 46.5 L 167 52.5 L 167.5 54 L 165.5 51 Q 161.7 53.2 167 55.5 L 166.5 57 L 165 56.5 L 163.5 60 L 161.5 61 L 159.5 61 L 152.5 63 Q 149.6 60.4 143.5 61 L 142 59.5 Q 141.3 55.8 143.5 55 Q 147.9 58.1 156.5 57 L 158.5 56 L 160.5 56 L 163 55.5 L 161 54.5 Q 163.8 53.4 163 50 L 165 49.5 L 163 49 L 164 45 L 156 41 Q 157.1 37.5 149.5 39 L 144 32.5 L 146 32.5 L 144.5 30 L 143 30.5 L 142 24.5 L 146.5 18 L 148 18.5 Q 146.9 15.2 149.5 16 L 154.5 14 Z M 150 17 L 150 18 L 152 18 L 150 17 Z M 147 19 L 145 21 L 147 21 L 147 19 Z "></path><path fill="rgb(252,223,90)" stroke="rgb(252,223,90)" stroke-width="1" opacity="0.996078431372549" d="M 193.5 18 L 196 18.5 L 195 20.5 L 197 20.5 L 199 27.5 L 198 29.5 L 201 30.5 L 206 43.5 L 205 45.5 L 207 45.5 L 208 47.5 Q 205.5 49 209 50.5 L 210 52.5 Q 207.5 54 211 55.5 L 213 61.5 Q 211.7 64.3 210.5 62 L 208.5 63 L 204 56.5 L 205 53.5 Q 205.7 50.9 203 52 Q 205 58 199 56 L 198.5 54 L 195 56 L 194.5 54 L 193.5 57 L 192.5 55 L 191.5 57 L 190.5 55 L 189.5 57 L 187.5 56 L 186 56.5 L 185.5 55 L 180.5 62 L 178.5 63 L 176 61.5 L 179.5 52 L 181 52.5 L 180 50.5 L 186 35 Q 189 36.3 188 32.5 L 190 32.5 L 189 27.5 L 194 19.5 L 193.5 18 Z M 192 31 L 191 33 L 193 34 L 192 31 Z M 196 31 L 196 33 L 199 32 L 196 31 Z M 196 33 L 191 36 L 191 38 L 189 43 L 189 45 L 187 45 L 189 52 L 192 53 L 195 52 L 196 54 L 200 53 L 199 52 L 201 48 Q 203 46 200 45 L 201 43 Q 202 40 199 41 L 198 38 Q 199 35 196 36 L 196 33 Z M 200 35 L 200 37 L 202 36 L 200 35 Z M 187 39 L 187 43 L 187 42 Q 189 40 187 39 Z M 203 48 L 202 51 L 203 51 L 203 48 Z M 180 57 L 180 59 L 182 58 L 180 57 Z "></path><path fill="rgb(252,223,90)" stroke="rgb(252,223,90)" stroke-width="1" opacity="0.996078431372549" d="M 292.5 18 L 292 19.5 L 294 22.5 L 295 24.5 L 294.5 26 L 296 26.5 L 295.5 28 Q 298.9 27.1 297 32.5 L 300 36.5 L 299.5 38 L 301 38.5 L 300.5 40 L 302 40.5 L 302 42.5 L 305 49.5 L 301.5 49 Q 299.3 48.3 300 50.5 Q 301.6 53.5 307 52 L 306 55.5 Q 309.9 57.6 309 63 L 304 62 Q 305.1 59.3 302.5 60 L 300.5 56 L 299 56.5 L 298.5 55 Q 295.8 57.8 289.5 57 L 287.5 57 Q 281.8 58.3 280.5 55 L 278 55.5 L 278.5 58 L 280 57.5 L 276.5 63 L 274.5 62 L 273 62.5 Q 272 58.8 275 60 L 275 56.5 L 277 52.5 Q 276.5 47 279.5 45 L 281 44.5 L 280 43.5 L 283 40.5 L 283 36.5 L 285 32.5 L 284.5 31 L 287 29.5 L 286 27.5 L 288 23.5 L 290 19 L 292.5 18 Z M 287 31 L 286 35 L 287 35 L 287 31 Z M 296 33 Q 294 36 297 35 L 296 33 Z M 291 34 L 288 35 Q 289 37 286 39 L 287 40 L 285 40 L 286 42 L 285 42 L 285 44 L 284 46 L 285 51 L 288 54 L 290 53 Q 291 56 293 52 L 295 53 L 298 51 Q 300 52 299 50 L 298 50 L 297 48 L 298 46 L 295 37 L 291 34 Z M 298 53 L 296 55 L 298 55 L 298 53 Z "></path><path fill="rgb(252,223,90)" stroke="rgb(252,223,90)" stroke-width="1" opacity="0.996078431372549" d="M 95 19 Q 98.8 18 100 20.5 Q 99.3 22.8 101.5 22 L 104.5 28 L 107 27 Q 105.9 29.7 108.5 29 L 108 30.5 L 108.5 33 L 110 32.5 L 109 35.5 L 108.5 37 L 106.5 34 L 104.5 35 L 103 34.5 L 100 39.5 L 101 44.5 L 100 47.5 L 101 54.5 L 100 56.5 L 101 58.5 L 100 60.5 L 100.5 62 L 97.5 63 L 95 59.5 L 95 48.5 L 95 46.5 L 95 22.5 L 96 21.5 L 95 19 Z "></path><path fill="rgb(252,223,90)" stroke="rgb(252,223,90)" stroke-width="1" opacity="0.996078431372549" d="M 111.5 34 L 114 35.5 Q 113.3 37.8 115.5 37 L 119 41.5 L 115.5 43 L 112 42 L 110 36.5 L 112 35.5 L 111.5 34 Z M 115 40 L 115 42 L 117 41 L 115 40 Z "></path><path fill="rgb(242,222,130)" stroke="rgb(242,222,130)" stroke-width="1" opacity="0.9921568627450981" d="M 94 10 L 99 13.5 L 121 40.5 L 119.5 40 Q 117.3 40.8 118 38.5 L 96.5 13 Q 94.3 12.3 95 14.5 L 93.5 18 L 93 12.5 L 94 10 Z "></path><path fill="rgb(242,222,130)" stroke="rgb(242,222,130)" stroke-width="1" opacity="0.9921568627450981" d="M 194.5 10 L 217 63.5 L 212.5 64 L 212.5 63 Q 215.5 63.9 214 59.5 L 194.5 14 Q 191.9 13.2 193 16.5 L 176 56.5 L 175 63 L 177 63.5 L 172.5 64 L 173 62.5 L 192 13.5 L 194.5 10 Z "></path><path fill="rgb(242,222,130)" stroke="rgb(242,222,130)" stroke-width="1" opacity="0.9921568627450981" d="M 290 10 Q 292.7 8.9 292 11.5 L 298 25.5 L 296 24.5 Q 295.4 17.6 291.5 14 Q 288.9 13.2 290 16.5 L 286.5 22 L 286 20.5 Q 289.7 16.5 290 10 Z "></path><path fill="rgb(242,222,130)" stroke="rgb(242,222,130)" stroke-width="1" opacity="0.9921568627450981" d="M 11.5 11 L 20 12.5 L 11 13 L 10 15.5 L 10 61.5 L 11.5 64 L 9 63.5 L 9 12 L 11.5 11 Z "></path><path fill="rgb(242,222,130)" stroke="rgb(242,222,130)" stroke-width="1" opacity="0.9921568627450981" d="M 25.5 11 L 26.5 13 Q 23.7 13.7 25.5 11 Z "></path><path fill="rgb(242,222,130)" stroke="rgb(242,222,130)" stroke-width="1" opacity="0.9921568627450981" d="M 28.5 11 L 32.5 12 Q 33.8 9.8 35 12.5 L 34 15.5 L 35 17.5 L 34 20.5 L 33.5 22 L 31 20.5 L 33 20 L 34 16.5 L 31.5 13 Q 26.4 14.3 28.5 11 Z "></path><path fill="rgb(242,222,130)" stroke="rgb(242,222,130)" stroke-width="1" opacity="0.9921568627450981" d="M 48.5 11 L 52 12 L 51.5 25 L 51 13 Q 46.5 14.3 48.5 11 Z "></path><path fill="rgb(242,222,130)" stroke="rgb(242,222,130)" stroke-width="1" opacity="0.9921568627450981" d="M 152.5 11 L 160.5 11 L 167 13 L 166.5 18 L 164.5 14 L 157.5 12 L 154.5 13 L 152.5 13 L 146 15 L 146 17 Q 143.3 15.9 144 18.5 Q 139.9 21.4 141 29.5 L 143 35 L 145 35 Q 143.9 37.7 146.5 37 L 148.5 40 L 142 34.5 Q 138.7 30.8 140 22.5 L 145.5 14 L 152.5 11 Z "></path><path fill="rgb(242,222,130)" stroke="rgb(242,222,130)" stroke-width="1" opacity="0.9921568627450981" d="M 249.5 11 L 256.5 11 L 264 13 L 262.5 23 L 259 21.5 L 262 19.5 Q 263 15 260.5 14 L 253.5 12 L 242 15.5 L 243 16.5 L 238 21.5 Q 235.7 34.3 243 37.5 L 238 33.5 L 236 26.5 L 239 17.5 L 242.5 14 L 249.5 11 Z "></path><path fill="rgb(242,222,130)" stroke="rgb(242,222,130)" stroke-width="1" opacity="0.9921568627450981" d="M 21.5 12 L 24 12.5 L 21.5 13 L 21.5 12 Z "></path><path fill="rgb(242,222,130)" stroke="rgb(242,222,130)" stroke-width="1" opacity="0.9921568627450981" d="M 42 12 L 47 12.5 L 44 14.5 L 43 16.5 L 43 18.5 L 44 22.5 L 43 24.5 L 43 26.5 L 44 29.5 L 43 32.5 L 44 34.5 L 43 35.5 L 43 44.5 L 43 46.5 Q 41.3 52.7 44 54.5 L 43 57.5 L 44 59.5 L 44 61.5 Q 43.3 63.8 45.5 63 L 45.5 64 L 42 63.5 L 42 12 Z "></path><path fill="rgb(242,222,130)" stroke="rgb(242,222,130)" stroke-width="1" opacity="0.9921568627450981" d="M 75 12 L 84.5 12 L 85 12.5 L 85 64 Q 82.3 65.1 83 62.5 L 84 61.5 L 84 14.5 Q 82.8 11.8 77.5 13 L 76 14.5 L 75.5 30 L 75 12 Z "></path><path fill="rgb(242,222,130)" stroke="rgb(242,222,130)" stroke-width="1" opacity="0.9921568627450981" d="M 123 12 L 132.5 12 L 133 12.5 L 133 65 L 129 63.5 L 125 58.5 L 130.5 63 L 132 61.5 L 132 14.5 L 130.5 13 Q 125.3 11.8 124 14.5 L 123.5 39 L 123 12 Z "></path><path fill="rgb(242,222,130)" stroke="rgb(242,222,130)" stroke-width="1" opacity="0.9921568627450981" d="M 165.5 19 L 166 22.5 L 164.5 22 L 162 21.5 L 165.5 19 Z "></path><path fill="rgb(242,222,130)" stroke="rgb(242,222,130)" stroke-width="1" opacity="0.9921568627450981" d="M 251.5 19 L 255 20.5 L 250.5 21 L 251.5 19 Z "></path><path fill="rgb(242,222,130)" stroke="rgb(242,222,130)" stroke-width="1" opacity="0.9921568627450981" d="M 153.5 20 L 160 20.5 L 153.5 21 L 153.5 20 Z "></path><path fill="rgb(242,222,130)" stroke="rgb(242,222,130)" stroke-width="1" opacity="0.9921568627450981" d="M 93.5 21 L 94 60.5 L 96 63.5 L 93 64 L 93.5 21 Z "></path><path fill="rgb(242,222,130)" stroke="rgb(242,222,130)" stroke-width="1" opacity="0.9921568627450981" d="M 248.5 21 L 247 23.5 L 246.5 28 L 246 23.5 L 248.5 21 Z "></path><path fill="rgb(242,222,130)" stroke="rgb(242,222,130)" stroke-width="1" opacity="0.9921568627450981" d="M 18.5 23 L 19 30.5 L 18 30.5 L 17 25.5 L 18.5 23 Z "></path><path fill="rgb(242,222,130)" stroke="rgb(242,222,130)" stroke-width="1" opacity="0.9921568627450981" d="M 285.5 23 L 286 25.5 L 271 61.5 L 272 64 Q 268.3 65.5 269 62.5 L 285.5 23 Z "></path><path fill="rgb(242,222,130)" stroke="rgb(242,222,130)" stroke-width="1" opacity="0.9921568627450981" d="M 149.5 24 L 150 26.5 L 149 26.5 L 149.5 24 Z "></path><path fill="rgb(242,222,130)" stroke="rgb(242,222,130)" stroke-width="1" opacity="0.9921568627450981" d="M 51.5 26 L 52 32.5 L 51 32.5 L 51.5 26 Z "></path><path fill="rgb(242,222,130)" stroke="rgb(242,222,130)" stroke-width="1" opacity="0.9921568627450981" d="M 297.5 27 Q 299.8 26.3 299 28.5 L 312 58.5 L 313 64 L 310 63.5 L 311 61.5 L 297.5 27 Z "></path><path fill="rgb(242,222,130)" stroke="rgb(242,222,130)" stroke-width="1" opacity="0.9921568627450981" d="M 150.5 29 L 153.5 32 Q 162.1 33.6 167 38 L 171 45.5 L 171 52.5 L 169.5 55 L 169 51.5 L 170 46.5 L 169 43.5 L 161.5 36 L 160 36.5 Q 160.9 33.5 156.5 35 L 150 30.5 L 150.5 29 Z "></path><path fill="rgb(242,222,130)" stroke="rgb(242,222,130)" stroke-width="1" opacity="0.9921568627450981" d="M 247.5 29 L 250.5 32 L 260.5 36 L 266 41.5 Q 268.8 44.2 268 50.5 L 266.5 55 L 266 50.5 L 267 47.5 L 262.5 40 Q 260.3 40.8 261 38.5 L 247 30.5 L 247.5 29 Z "></path><path fill="rgb(242,222,130)" stroke="rgb(242,222,130)" stroke-width="1" opacity="0.9921568627450981" d="M 75.5 31 L 76 61.5 L 77.5 63 L 80 63.5 L 75 64 L 75.5 31 Z "></path><path fill="rgb(242,222,130)" stroke="rgb(242,222,130)" stroke-width="1" opacity="0.9921568627450981" d="M 18.5 32 L 19.5 33 L 33 33 L 32 37.5 L 33 39.5 L 32 39.5 L 31 36.5 L 31.5 35 Q 27.7 32.3 19.5 34 L 18.5 32 Z "></path><path fill="rgb(242,222,130)" stroke="rgb(242,222,130)" stroke-width="1" opacity="0.9921568627450981" d="M 51.5 34 L 52 52.5 L 51 52.5 L 51.5 34 Z "></path><path fill="rgb(242,222,130)" stroke="rgb(242,222,130)" stroke-width="1" opacity="0.9921568627450981" d="M 106.5 37 L 109.5 41 L 106.5 37 Z "></path><path fill="rgb(242,222,130)" stroke="rgb(242,222,130)" stroke-width="1" opacity="0.9921568627450981" d="M 244.5 38 L 245.5 40 L 244.5 38 Z "></path><path fill="rgb(242,222,130)" stroke="rgb(242,222,130)" stroke-width="1" opacity="0.9921568627450981" d="M 293.5 38 L 296 45.5 L 295 45.5 L 293.5 38 Z "></path><path fill="rgb(242,222,130)" stroke="rgb(242,222,130)" stroke-width="1" opacity="0.9921568627450981" d="M 102.5 39 L 104 42.5 L 103 43.5 L 103 64 L 99 63.5 L 102 63 L 102.5 39 Z "></path><path fill="rgb(242,222,130)" stroke="rgb(242,222,130)" stroke-width="1" opacity="0.9921568627450981" d="M 191.5 40 L 192 41.5 L 189.5 45 L 190 43.5 L 191.5 40 Z "></path><path fill="rgb(242,222,130)" stroke="rgb(242,222,130)" stroke-width="1" opacity="0.9921568627450981" d="M 197.5 40 L 199 43.5 L 198 43.5 L 197.5 40 Z "></path><path fill="rgb(242,222,130)" stroke="rgb(242,222,130)" stroke-width="1" opacity="0.9921568627450981" d="M 31 41 L 33 41.5 L 31 42.5 L 31 41 Z "></path><path fill="rgb(242,222,130)" stroke="rgb(242,222,130)" stroke-width="1" opacity="0.9921568627450981" d="M 287.5 42 L 288 43.5 L 286.5 47 L 286 44.5 L 287.5 42 Z "></path><path fill="rgb(242,222,130)" stroke="rgb(242,222,130)" stroke-width="1" opacity="0.9921568627450981" d="M 111.5 43 L 120.5 53 Q 118.3 53.8 119 51.5 L 111.5 43 Z "></path><path fill="rgb(242,222,130)" stroke="rgb(242,222,130)" stroke-width="1" opacity="0.9921568627450981" d="M 18.5 44 L 19 54 L 35 54 L 35 64 L 31 63.5 L 34 63 L 34 56.5 L 32.5 56 L 30.5 56 Q 21.1 57.9 18 53.5 L 17 51.5 L 18.5 44 Z "></path><path fill="rgb(242,222,130)" stroke="rgb(242,222,130)" stroke-width="1" opacity="0.9921568627450981" d="M 159.5 44 L 163 49.5 L 158.5 55 L 149.5 56 L 142.5 54 L 140 58.5 L 142 61.5 L 140.5 61 Q 137.5 61.9 139 57.5 L 140.5 50 Q 145.2 55.3 156.5 54 L 160 51.5 L 161 47.5 L 159.5 44 Z "></path><path fill="rgb(242,222,130)" stroke="rgb(242,222,130)" stroke-width="1" opacity="0.9921568627450981" d="M 198.5 45 L 199.5 47 L 198.5 45 Z "></path><path fill="rgb(242,222,130)" stroke="rgb(242,222,130)" stroke-width="1" opacity="0.9921568627450981" d="M 257.5 45 L 259 48.5 L 257 47.5 L 257.5 45 Z "></path><path fill="rgb(242,222,130)" stroke="rgb(242,222,130)" stroke-width="1" opacity="0.9921568627450981" d="M 191.5 49 L 198 49.5 L 195.5 51 L 191.5 50 L 191.5 49 Z "></path><path fill="rgb(242,222,130)" stroke="rgb(242,222,130)" stroke-width="1" opacity="0.9921568627450981" d="M 287 49 L 294.5 49 L 295 50.5 L 293.5 50 Q 288.7 48.8 287.5 51 L 287 49 Z "></path><path fill="rgb(242,222,130)" stroke="rgb(242,222,130)" stroke-width="1" opacity="0.9921568627450981" d="M 237.5 50 Q 242.2 55.3 253.5 54 L 257 51.5 L 257.5 50 L 258 52.5 Q 256.1 57.1 248.5 56 L 238.5 54 Q 236.3 54.8 237 58.5 L 238 61 Q 234.5 62.1 236 54.5 L 237.5 50 Z "></path><path fill="rgb(242,222,130)" stroke="rgb(242,222,130)" stroke-width="1" opacity="0.9921568627450981" d="M 53.5 54 L 69 54 L 69 64 L 67 63.5 L 68 62.5 L 68 56 L 65.5 55 L 53.5 55 L 53.5 54 Z "></path><path fill="rgb(242,222,130)" stroke="rgb(242,222,130)" stroke-width="1" opacity="0.9921568627450981" d="M 168.5 56 L 165.5 60 L 166 58.5 Q 165.3 56.3 167.5 57 L 168.5 56 Z "></path><path fill="rgb(242,222,130)" stroke="rgb(242,222,130)" stroke-width="1" opacity="0.9921568627450981" d="M 264.5 56 L 265 57.5 L 263 58.5 L 264.5 56 Z "></path><path fill="rgb(242,222,130)" stroke="rgb(242,222,130)" stroke-width="1" opacity="0.9921568627450981" d="M 204.5 59 L 206 63 L 208 63.5 L 205 64 L 204.5 59 Z "></path><path fill="rgb(242,222,130)" stroke="rgb(242,222,130)" stroke-width="1" opacity="0.9921568627450981" d="M 261.5 60 L 260.5 62 L 261.5 60 Z "></path><path fill="rgb(242,222,130)" stroke="rgb(242,222,130)" stroke-width="1" opacity="0.9921568627450981" d="M 301.5 60 L 304 63.5 L 302 64 L 301.5 60 Z "></path><path fill="rgb(242,222,130)" stroke="rgb(242,222,130)" stroke-width="1" opacity="0.9921568627450981" d="M 183.5 61 L 184 62.5 L 180.5 64 L 180.5 63 L 183.5 61 Z "></path><path fill="rgb(242,222,130)" stroke="rgb(242,222,130)" stroke-width="1" opacity="0.9921568627450981" d="M 280.5 61 L 281 62.5 L 277.5 64 L 277.5 63 L 280.5 61 Z "></path><path fill="rgb(242,222,130)" stroke="rgb(242,222,130)" stroke-width="1" opacity="0.9921568627450981" d="M 19.5 63 L 22 63.5 L 19.5 64 L 19.5 63 Z "></path><path fill="rgb(242,222,130)" stroke="rgb(242,222,130)" stroke-width="1" opacity="0.9921568627450981" d="M 26.5 63 L 30 63.5 L 26.5 64 L 26.5 63 Z "></path><path fill="rgb(246,218,92)" stroke="rgb(246,218,92)" stroke-width="1" opacity="0.9921568627450981" d="M 30.5 13 L 31 16 L 33 16.5 L 31.5 17 Q 29 16 30.5 13 Z "></path><path fill="rgb(246,218,92)" stroke="rgb(246,218,92)" stroke-width="1" opacity="0.9921568627450981" d="M 11.5 14 L 12.5 16 L 11.5 14 Z "></path><path fill="rgb(246,218,92)" stroke="rgb(246,218,92)" stroke-width="1" opacity="0.9921568627450981" d="M 126.5 14 L 127 15.5 L 126 16.5 L 125.5 28 L 124 20.5 L 126.5 14 Z "></path><path fill="rgb(246,218,92)" stroke="rgb(246,218,92)" stroke-width="1" opacity="0.9921568627450981" d="M 151.5 14 L 154 14.5 L 151.5 15 L 151.5 14 Z "></path><path fill="rgb(246,218,92)" stroke="rgb(246,218,92)" stroke-width="1" opacity="0.9921568627450981" d="M 147.5 15 L 148 18.5 L 147 20.5 L 147.5 22 L 145 20.5 Q 147.8 19.3 147.5 15 Z "></path><path fill="rgb(246,218,92)" stroke="rgb(246,218,92)" stroke-width="1" opacity="0.9921568627450981" d="M 195.5 15 L 196 16.5 L 195 18.5 L 196 20.5 L 194 21.5 L 195 19.5 L 192 20.5 L 195.5 15 Z "></path><path fill="rgb(246,218,92)" stroke="rgb(246,218,92)" stroke-width="1" opacity="0.9921568627450981" d="M 260.5 15 Q 263.5 16.5 260.5 18 L 258 17.5 L 261 16.5 L 260.5 15 Z "></path><path fill="rgb(246,218,92)" stroke="rgb(246,218,92)" stroke-width="1" opacity="0.9921568627450981" d="M 243.5 16 Q 246.5 17.5 243.5 19 Q 242.3 16.8 241 19.5 L 239.5 22 L 240 20.5 L 243.5 16 Z "></path><path fill="rgb(246,218,92)" stroke="rgb(246,218,92)" stroke-width="1" opacity="0.9921568627450981" d="M 292.5 16 L 293 17.5 L 293 19.5 L 292 21.5 L 292.5 23 L 289 20.5 L 290.5 18 Q 293 18.7 292.5 16 Z M 290 19 Q 289 22 292 21 Q 293 18 290 19 Z "></path><path fill="rgb(246,218,92)" stroke="rgb(246,218,92)" stroke-width="1" opacity="0.9921568627450981" d="M 11.5 17 L 10.5 19 L 11.5 17 Z "></path><path fill="rgb(246,218,92)" stroke="rgb(246,218,92)" stroke-width="1" opacity="0.9921568627450981" d="M 95 17 Q 98 16 97 19 Q 94 20 95 17 Z "></path><path fill="rgb(246,218,92)" stroke="rgb(246,218,92)" stroke-width="1" opacity="0.9921568627450981" d="M 98.5 17 L 99.5 19 L 98.5 17 Z "></path><path fill="rgb(246,218,92)" stroke="rgb(246,218,92)" stroke-width="1" opacity="0.9921568627450981" d="M 145.5 17 L 144.5 19 L 145.5 17 Z "></path><path fill="rgb(246,218,92)" stroke="rgb(246,218,92)" stroke-width="1" opacity="0.9921568627450981" d="M 149.5 17 L 152 17.5 L 149.5 18 L 149.5 17 Z "></path><path fill="rgb(246,218,92)" stroke="rgb(246,218,92)" stroke-width="1" opacity="0.9921568627450981" d="M 29.5 18 L 32 18.5 L 29.5 19 L 29.5 18 Z "></path><path fill="rgb(246,218,92)" stroke="rgb(246,218,92)" stroke-width="1" opacity="0.9921568627450981" d="M 155.5 18 L 158 18.5 L 155.5 19 L 155.5 18 Z "></path><path fill="rgb(246,218,92)" stroke="rgb(246,218,92)" stroke-width="1" opacity="0.9921568627450981" d="M 160.5 18 L 163 19.5 L 160 20 L 160.5 18 Z "></path><path fill="rgb(246,218,92)" stroke="rgb(246,218,92)" stroke-width="1" opacity="0.9921568627450981" d="M 250.5 18 L 254 18.5 L 250.5 19 L 250.5 18 Z "></path><path fill="rgb(246,218,92)" stroke="rgb(246,218,92)" stroke-width="1" opacity="0.9921568627450981" d="M 149.5 19 L 153 19.5 L 149.5 20 L 149.5 19 Z "></path><path fill="rgb(246,218,92)" stroke="rgb(246,218,92)" stroke-width="1" opacity="0.9921568627450981" d="M 19.5 20 L 17.5 23 L 19.5 20 Z "></path><path fill="rgb(246,218,92)" stroke="rgb(246,218,92)" stroke-width="1" opacity="0.9921568627450981" d="M 100.5 20 L 104.5 26 L 106 25.5 L 104.5 28 L 101.5 22 Q 98.7 22.7 100.5 20 Z "></path><path fill="rgb(246,218,92)" stroke="rgb(246,218,92)" stroke-width="1" opacity="0.9921568627450981" d="M 242.5 20 L 246 21.5 L 245.5 23 L 244.5 21 Q 242.7 23.5 242.5 20 Z "></path><path fill="rgb(246,218,92)" stroke="rgb(246,218,92)" stroke-width="1" opacity="0.9921568627450981" d="M 13.5 23 L 14 27.5 L 11 29 L 11.5 25 L 12.5 28 L 13.5 23 Z "></path><path fill="rgb(246,218,92)" stroke="rgb(246,218,92)" stroke-width="1" opacity="0.9921568627450981" d="M 15.5 23 L 17 27 Q 13.2 28.2 15.5 23 Z "></path><path fill="rgb(246,218,92)" stroke="rgb(246,218,92)" stroke-width="1" opacity="0.9921568627450981" d="M 295.5 24 L 294.5 26 L 295.5 24 Z "></path><path fill="rgb(246,218,92)" stroke="rgb(246,218,92)" stroke-width="1" opacity="0.9921568627450981" d="M 198 25 L 200 25.5 L 198 26.5 L 198 25 Z "></path><path fill="rgb(246,218,92)" stroke="rgb(246,218,92)" stroke-width="1" opacity="0.9921568627450981" d="M 287.5 25 L 286.5 27 L 287.5 25 Z "></path><path fill="rgb(246,218,92)" stroke="rgb(246,218,92)" stroke-width="1" opacity="0.9921568627450981" d="M 198 28 L 200 28.5 L 199.5 31 L 198 28 Z "></path><path fill="rgb(246,218,92)" stroke="rgb(246,218,92)" stroke-width="1" opacity="0.9921568627450981" d="M 145.5 29 L 146 31.5 L 145.5 33 L 144 30.5 L 145.5 29 Z "></path><path fill="rgb(246,218,92)" stroke="rgb(246,218,92)" stroke-width="1" opacity="0.9921568627450981" d="M 240.5 29 L 241 31.5 L 239 30.5 L 240.5 29 Z "></path><path fill="rgb(246,218,92)" stroke="rgb(246,218,92)" stroke-width="1" opacity="0.9921568627450981" d="M 285 29 L 288 30.5 L 287 34.5 L 287.5 36 L 285 29 Z "></path><path fill="rgb(246,218,92)" stroke="rgb(246,218,92)" stroke-width="1" opacity="0.9921568627450981" d="M 292.5 29 L 291.5 31 L 292.5 29 Z "></path><path fill="rgb(246,218,92)" stroke="rgb(246,218,92)" stroke-width="1" opacity="0.9921568627450981" d="M 294.5 29 L 295.5 31 L 294.5 29 Z "></path><path fill="rgb(246,218,92)" stroke="rgb(246,218,92)" stroke-width="1" opacity="0.9921568627450981" d="M 101.5 30 L 103 32.5 L 101.5 35 L 101 33.5 L 102 31.5 L 101.5 30 Z "></path><path fill="rgb(246,218,92)" stroke="rgb(246,218,92)" stroke-width="1" opacity="0.9921568627450981" d="M 108 30 Q 110.7 28.9 110 31.5 L 112 31.5 L 111.5 33 L 114 34.5 L 112.5 34 L 111 34.5 Q 113 38.2 115 36.5 L 114 38.5 L 117 40.5 L 115.5 43 L 119.5 41 L 119 42.5 L 119.5 44 L 121.5 42 L 125 45.5 Q 123.7 48.3 122.5 46 L 121 45.5 L 123 44.5 L 121.5 43 L 117 46.5 L 117.5 45 L 115.5 46 L 115.5 44 L 113.5 45 Q 110.5 43.5 113.5 42 Q 115.8 42.8 115 40.5 L 113.5 39 L 111 40.5 L 113 37.5 L 110 35.5 L 111 38.5 L 109 39.5 L 110 37.5 L 109 35.5 Q 111.5 34 108 32.5 L 108 30 Z "></path><path fill="rgb(246,218,92)" stroke="rgb(246,218,92)" stroke-width="1" opacity="0.9921568627450981" d="M 148.5 30 L 151 31.5 L 150.5 33 L 150 31 L 147.5 32 L 148.5 30 Z "></path><path fill="rgb(246,218,92)" stroke="rgb(246,218,92)" stroke-width="1" opacity="0.9921568627450981" d="M 188.5 30 L 190.5 30 L 193 32.5 Q 192.3 34.8 194.5 34 L 194 32.5 L 194.5 31 L 195.5 33 L 196 31 Q 199 30 198 33 Q 195 32 196 35 L 193.5 35 L 192 35.5 Q 194.2 34.3 191.5 33 Q 189.8 35.8 188 31.5 L 188.5 30 Z "></path><path fill="rgb(246,218,92)" stroke="rgb(246,218,92)" stroke-width="1" opacity="0.9921568627450981" d="M 245.5 30 Q 247.8 29.3 247 31.5 L 248.5 34 L 246 32.5 L 245.5 30 Z "></path><path fill="rgb(246,218,92)" stroke="rgb(246,218,92)" stroke-width="1" opacity="0.9921568627450981" d="M 12.5 31 L 15 31.5 L 12.5 32 L 12.5 31 Z "></path><path fill="rgb(246,218,92)" stroke="rgb(246,218,92)" stroke-width="1" opacity="0.9921568627450981" d="M 297.5 31 L 299 33.5 L 297 32.5 L 297.5 31 Z "></path><path fill="rgb(246,218,92)" stroke="rgb(246,218,92)" stroke-width="1" opacity="0.9921568627450981" d="M 105.5 32 L 107 35.5 Q 105.8 38.3 104.5 36 Q 102.3 36.8 103 34.5 L 106 35.5 L 105.5 32 Z "></path><path fill="rgb(246,218,92)" stroke="rgb(246,218,92)" stroke-width="1" opacity="0.9921568627450981" d="M 44.5 33 L 45.5 35 Q 42.7 35.7 44.5 33 Z "></path><path fill="rgb(246,218,92)" stroke="rgb(246,218,92)" stroke-width="1" opacity="0.9921568627450981" d="M 143.5 33 L 145.5 36 L 143.5 33 Z "></path><path fill="rgb(246,218,92)" stroke="rgb(246,218,92)" stroke-width="1" opacity="0.9921568627450981" d="M 199.5 33 L 200 35 L 202 35.5 L 200 36.5 L 199.5 33 Z "></path><path fill="rgb(246,218,92)" stroke="rgb(246,218,92)" stroke-width="1" opacity="0.9921568627450981" d="M 295.5 33 L 296.5 35 Q 293.7 35.7 295.5 33 Z "></path><path fill="rgb(246,218,92)" stroke="rgb(246,218,92)" stroke-width="1" opacity="0.9921568627450981" d="M 150.5 34 L 149.5 36 L 150.5 34 Z "></path><path fill="rgb(246,218,92)" stroke="rgb(246,218,92)" stroke-width="1" opacity="0.9921568627450981" d="M 185.5 34 L 186 37.5 L 184.5 40 L 184 38.5 L 185.5 34 Z "></path><path fill="rgb(246,218,92)" stroke="rgb(246,218,92)" stroke-width="1" opacity="0.9921568627450981" d="M 241.5 34 L 244 34.5 Q 241.9 37.8 241.5 34 Z "></path><path fill="rgb(246,218,92)" stroke="rgb(246,218,92)" stroke-width="1" opacity="0.9921568627450981" d="M 251.5 34 L 253 34.5 L 246 38.5 L 246.5 40 L 245 37 L 251.5 34 Z "></path><path fill="rgb(246,218,92)" stroke="rgb(246,218,92)" stroke-width="1" opacity="0.9921568627450981" d="M 291.5 34 L 290.5 36 L 291.5 34 Z "></path><path fill="rgb(246,218,92)" stroke="rgb(246,218,92)" stroke-width="1" opacity="0.9921568627450981" d="M 21.5 35 L 24 35.5 L 21.5 36 L 21.5 35 Z "></path><path fill="rgb(246,218,92)" stroke="rgb(246,218,92)" stroke-width="1" opacity="0.9921568627450981" d="M 28.5 35 L 29.5 37 L 31 36.5 Q 29.5 39.5 28 36.5 L 28.5 35 Z "></path><path fill="rgb(246,218,92)" stroke="rgb(246,218,92)" stroke-width="1" opacity="0.9921568627450981" d="M 49.5 35 L 50 37 L 48 36.5 L 49.5 35 Z "></path><path fill="rgb(246,218,92)" stroke="rgb(246,218,92)" stroke-width="1" opacity="0.9921568627450981" d="M 152.5 35 L 156 36.5 L 154.5 37 L 152.5 35 Z "></path><path fill="rgb(246,218,92)" stroke="rgb(246,218,92)" stroke-width="1" opacity="0.9921568627450981" d="M 254.5 35 L 255 36.5 Q 253.5 39.5 252 36.5 L 254 36.5 L 254.5 35 Z "></path><path fill="rgb(246,218,92)" stroke="rgb(246,218,92)" stroke-width="1" opacity="0.9921568627450981" d="M 293.5 35 L 296 38.5 L 294 37.5 L 293.5 35 Z "></path><path fill="rgb(246,218,92)" stroke="rgb(246,218,92)" stroke-width="1" opacity="0.9921568627450981" d="M 17 36 L 20 36.5 L 17.5 38 L 17 36 Z "></path><path fill="rgb(246,218,92)" stroke="rgb(246,218,92)" stroke-width="1" opacity="0.9921568627450981" d="M 158.5 36 L 161.5 40 L 158.5 36 Z "></path><path fill="rgb(246,218,92)" stroke="rgb(246,218,92)" stroke-width="1" opacity="0.9921568627450981" d="M 190.5 36 L 191.5 38 L 190.5 36 Z "></path><path fill="rgb(246,218,92)" stroke="rgb(246,218,92)" stroke-width="1" opacity="0.9921568627450981" d="M 258.5 37 L 261 41.5 L 258 43.5 Q 259.3 46.3 260.5 44 L 263 45.5 L 261.5 45 L 260 45.5 L 260.5 47 L 257 43.5 L 259.5 40 L 256 38.5 L 258.5 37 Z "></path><path fill="rgb(246,218,92)" stroke="rgb(246,218,92)" stroke-width="1" opacity="0.9921568627450981" d="M 283.5 37 L 282.5 39 L 283.5 37 Z "></path><path fill="rgb(246,218,92)" stroke="rgb(246,218,92)" stroke-width="1" opacity="0.9921568627450981" d="M 248.5 38 L 249.5 40 L 248.5 38 Z "></path><path fill="rgb(246,218,92)" stroke="rgb(246,218,92)" stroke-width="1" opacity="0.9921568627450981" d="M 286.5 38 L 286 39.5 L 285.5 41 L 285 39.5 L 286.5 38 Z "></path><path fill="rgb(246,218,92)" stroke="rgb(246,218,92)" stroke-width="1" opacity="0.9921568627450981" d="M 15.5 39 L 18 39.5 L 15.5 40 L 15.5 39 Z "></path><path fill="rgb(246,218,92)" stroke="rgb(246,218,92)" stroke-width="1" opacity="0.9921568627450981" d="M 77.5 39 L 76.5 41 L 77.5 39 Z "></path><path fill="rgb(246,218,92)" stroke="rgb(246,218,92)" stroke-width="1" opacity="0.9921568627450981" d="M 100.5 39 L 101.5 41 L 100.5 39 Z "></path><path fill="rgb(246,218,92)" stroke="rgb(246,218,92)" stroke-width="1" opacity="0.9921568627450981" d="M 158.5 39 L 161.5 43 L 158.5 39 Z "></path><path fill="rgb(246,218,92)" stroke="rgb(246,218,92)" stroke-width="1" opacity="0.9921568627450981" d="M 186.5 39 Q 189.3 40.3 187 41.5 L 186.5 43 L 186.5 39 Z "></path><path fill="rgb(246,218,92)" stroke="rgb(246,218,92)" stroke-width="1" opacity="0.9921568627450981" d="M 254.5 39 L 257 40.5 L 255.5 41 L 254.5 39 Z "></path><path fill="rgb(246,218,92)" stroke="rgb(246,218,92)" stroke-width="1" opacity="0.9921568627450981" d="M 124.5 40 L 123.5 42 L 124.5 40 Z "></path><path fill="rgb(246,218,92)" stroke="rgb(246,218,92)" stroke-width="1" opacity="0.9921568627450981" d="M 163.5 40 L 164.5 42 L 166 41.5 L 164.5 44 L 163.5 40 Z "></path><path fill="rgb(246,218,92)" stroke="rgb(246,218,92)" stroke-width="1" opacity="0.9921568627450981" d="M 251.5 40 L 254 41.5 L 252.5 42 L 251.5 40 Z "></path><path fill="rgb(246,218,92)" stroke="rgb(246,218,92)" stroke-width="1" opacity="0.9921568627450981" d="M 281 40 L 283 40.5 L 283 42.5 L 282.5 44 L 281 40 Z "></path><path fill="rgb(246,218,92)" stroke="rgb(246,218,92)" stroke-width="1" opacity="0.9921568627450981" d="M 297.5 40 L 297 41.5 L 296.5 44 L 296 41.5 L 297.5 40 Z "></path><path fill="rgb(246,218,92)" stroke="rgb(246,218,92)" stroke-width="1" opacity="0.9921568627450981" d="M 157.5 41 L 164 45 L 162.5 48 L 161.5 45 L 157.5 41 Z "></path><path fill="rgb(246,218,92)" stroke="rgb(246,218,92)" stroke-width="1" opacity="0.9921568627450981" d="M 199.5 41 Q 201.8 40.3 201 42.5 L 199.5 41 Z "></path><path fill="rgb(246,218,92)" stroke="rgb(246,218,92)" stroke-width="1" opacity="0.9921568627450981" d="M 301.5 41 L 303 43.5 L 302.5 46 Q 299.8 44.7 302 43.5 L 301.5 41 Z "></path><path fill="rgb(246,218,92)" stroke="rgb(246,218,92)" stroke-width="1" opacity="0.9921568627450981" d="M 16.5 43 L 17 45.5 L 16 45.5 L 16.5 43 Z "></path><path fill="rgb(246,218,92)" stroke="rgb(246,218,92)" stroke-width="1" opacity="0.9921568627450981" d="M 166.5 43 L 167.5 45 L 165.5 46 L 166 44.5 L 166.5 43 Z "></path><path fill="rgb(246,218,92)" stroke="rgb(246,218,92)" stroke-width="1" opacity="0.9921568627450981" d="M 278.5 44 L 281 44.5 L 278.5 45 L 278.5 44 Z "></path><path fill="rgb(246,218,92)" stroke="rgb(246,218,92)" stroke-width="1" opacity="0.9921568627450981" d="M 200.5 45 L 201.5 47 L 200.5 45 Z "></path><path fill="rgb(246,218,92)" stroke="rgb(246,218,92)" stroke-width="1" opacity="0.9921568627450981" d="M 45.5 46 L 44.5 48 L 45.5 46 Z "></path><path fill="rgb(246,218,92)" stroke="rgb(246,218,92)" stroke-width="1" opacity="0.9921568627450981" d="M 49.5 46 L 48.5 49 Q 50.8 48.3 50 50.5 L 47 52.5 L 48 49.5 Q 45.3 47.8 49.5 46 Z "></path><path fill="rgb(246,218,92)" stroke="rgb(246,218,92)" stroke-width="1" opacity="0.9921568627450981" d="M 77.5 47 L 78 49.5 L 77 49.5 L 77.5 47 Z "></path><path fill="rgb(246,218,92)" stroke="rgb(246,218,92)" stroke-width="1" opacity="0.9921568627450981" d="M 119 47 Q 122.8 46.3 124 49.5 L 122.5 54 L 118 49.5 L 119 48.5 L 119 47 Z M 120 49 L 121 51 Q 122 48 120 49 Z "></path><path fill="rgb(246,218,92)" stroke="rgb(246,218,92)" stroke-width="1" opacity="0.9921568627450981" d="M 14.5 48 L 15.5 50 L 14.5 48 Z "></path><path fill="rgb(246,218,92)" stroke="rgb(246,218,92)" stroke-width="1" opacity="0.9921568627450981" d="M 202.5 48 L 203 50.5 L 202 50.5 L 202.5 48 Z "></path><path fill="rgb(246,218,92)" stroke="rgb(246,218,92)" stroke-width="1" opacity="0.9921568627450981" d="M 259.5 48 L 263 50 L 262.5 52 L 259.5 48 Z "></path><path fill="rgb(246,218,92)" stroke="rgb(246,218,92)" stroke-width="1" opacity="0.9921568627450981" d="M 265.5 48 L 264.5 50 L 265.5 48 Z "></path><path fill="rgb(246,218,92)" stroke="rgb(246,218,92)" stroke-width="1" opacity="0.9921568627450981" d="M 302.5 48 L 305 52 Q 302 53.3 303 49.5 L 302 49.5 L 301.5 52 L 300 49 L 302.5 48 Z "></path><path fill="rgb(246,218,92)" stroke="rgb(246,218,92)" stroke-width="1" opacity="0.9921568627450981" d="M 168.5 49 L 169 51.5 L 166.5 55 Q 162 53 165.5 51 L 166.5 53 L 168.5 49 Z "></path><path fill="rgb(246,218,92)" stroke="rgb(246,218,92)" stroke-width="1" opacity="0.9921568627450981" d="M 179.5 49 L 181 52.5 L 180 52.5 L 179.5 49 Z "></path><path fill="rgb(246,218,92)" stroke="rgb(246,218,92)" stroke-width="1" opacity="0.9921568627450981" d="M 204.5 49 L 205.5 51 L 204.5 49 Z "></path><path fill="rgb(246,218,92)" stroke="rgb(246,218,92)" stroke-width="1" opacity="0.9921568627450981" d="M 286.5 49 L 287.5 52 L 289 51.5 L 287.5 54 L 285 50.5 L 286.5 49 Z "></path><path fill="rgb(246,218,92)" stroke="rgb(246,218,92)" stroke-width="1" opacity="0.9921568627450981" d="M 298.5 49 L 299 51 L 296.5 52 L 296 50 L 298.5 49 Z "></path><path fill="rgb(246,218,92)" stroke="rgb(246,218,92)" stroke-width="1" opacity="0.9921568627450981" d="M 43.5 50 L 46 50.5 L 43.5 51 L 43.5 50 Z "></path><path fill="rgb(246,218,92)" stroke="rgb(246,218,92)" stroke-width="1" opacity="0.9921568627450981" d="M 194.5 51 L 196.5 52 L 198.5 52 L 200 52.5 L 195 54.5 L 194.5 56 L 194 54.5 L 195 52.5 L 194.5 51 Z "></path><path fill="rgb(246,218,92)" stroke="rgb(246,218,92)" stroke-width="1" opacity="0.9921568627450981" d="M 290 51 Q 292.7 49.9 292 52.5 L 292.5 54 L 290 53.5 L 290 51 Z "></path><path fill="rgb(246,218,92)" stroke="rgb(246,218,92)" stroke-width="1" opacity="0.9921568627450981" d="M 294.5 51 L 296.5 54 L 298 53.5 L 299 55.5 L 297.5 55 L 295.5 54 L 295 55.5 L 295.5 57 L 294 54.5 L 294 52.5 L 294.5 51 Z "></path><path fill="rgb(246,218,92)" stroke="rgb(246,218,92)" stroke-width="1" opacity="0.9921568627450981" d="M 203 52 L 205 52.5 L 204 54.5 L 204.5 56 L 203 56 L 203 52 Z "></path><path fill="rgb(246,218,92)" stroke="rgb(246,218,92)" stroke-width="1" opacity="0.9921568627450981" d="M 258.5 52 L 261 52.5 Q 258.9 55.8 258.5 52 Z "></path><path fill="rgb(246,218,92)" stroke="rgb(246,218,92)" stroke-width="1" opacity="0.9921568627450981" d="M 275 52 L 277 52.5 L 275 53.5 L 275 52 Z "></path><path fill="rgb(246,218,92)" stroke="rgb(246,218,92)" stroke-width="1" opacity="0.9921568627450981" d="M 77.5 54 L 76.5 56 L 77.5 54 Z "></path><path fill="rgb(246,218,92)" stroke="rgb(246,218,92)" stroke-width="1" opacity="0.9921568627450981" d="M 101.5 54 L 101 55.5 L 102 57.5 L 100 56.5 L 101.5 54 Z "></path><path fill="rgb(246,218,92)" stroke="rgb(246,218,92)" stroke-width="1" opacity="0.9921568627450981" d="M 125.5 54 Q 123.8 56 127.5 58 L 130 57 L 131 60.5 L 130.5 63 L 128 59 Q 125.3 60.1 126 57.5 Q 122.3 55.8 125.5 54 Z "></path><path fill="rgb(246,218,92)" stroke="rgb(246,218,92)" stroke-width="1" opacity="0.9921568627450981" d="M 128.5 54 L 127.5 56 L 128.5 54 Z "></path><path fill="rgb(246,218,92)" stroke="rgb(246,218,92)" stroke-width="1" opacity="0.9921568627450981" d="M 180.5 54 L 183 55.5 L 181.5 56 L 180.5 54 Z "></path><path fill="rgb(246,218,92)" stroke="rgb(246,218,92)" stroke-width="1" opacity="0.9921568627450981" d="M 184.5 54 L 187 54.5 L 183.5 59 L 183 57.5 Q 186.1 55.8 184.5 54 Z "></path><path fill="rgb(246,218,92)" stroke="rgb(246,218,92)" stroke-width="1" opacity="0.9921568627450981" d="M 198.5 54 L 200 56.5 L 198.5 56 L 196.5 57 L 198.5 54 Z "></path><path fill="rgb(246,218,92)" stroke="rgb(246,218,92)" stroke-width="1" opacity="0.9921568627450981" d="M 261.5 54 L 263.5 55 L 265 54.5 L 261.5 57 L 261.5 56 L 263 55.5 L 261.5 54 Z "></path><path fill="rgb(246,218,92)" stroke="rgb(246,218,92)" stroke-width="1" opacity="0.9921568627450981" d="M 279.5 54 Q 281.3 57.1 283 55.5 L 280 57 L 279.5 55 L 279 57.5 L 280.5 60 L 276 57.5 Q 276.8 55.3 274.5 56 L 274.5 55 L 277 56.5 L 277.5 58 L 279.5 54 Z "></path><path fill="rgb(246,218,92)" stroke="rgb(246,218,92)" stroke-width="1" opacity="0.9921568627450981" d="M 160.5 55 L 163 55.5 L 159.5 57 L 160.5 55 Z "></path><path fill="rgb(246,218,92)" stroke="rgb(246,218,92)" stroke-width="1" opacity="0.9921568627450981" d="M 201.5 56 L 202.5 58 L 201.5 56 Z "></path><path fill="rgb(246,218,92)" stroke="rgb(246,218,92)" stroke-width="1" opacity="0.9921568627450981" d="M 180 57 L 182 57.5 L 180 58.5 L 180 57 Z "></path><path fill="rgb(246,218,92)" stroke="rgb(246,218,92)" stroke-width="1" opacity="0.9921568627450981" d="M 238.5 58 L 242 60.5 L 240.5 61 L 238.5 58 Z "></path><path fill="rgb(246,218,92)" stroke="rgb(246,218,92)" stroke-width="1" opacity="0.9921568627450981" d="M 276.5 60 L 278 60.5 L 274.5 63 L 276.5 60 Z "></path><path fill="rgb(246,218,92)" stroke="rgb(246,218,92)" stroke-width="1" opacity="0.9921568627450981" d="M 30.5 61 L 31.5 63 L 29.5 63 L 26 62.5 L 30.5 61 Z "></path><path fill="rgb(246,222,107)" stroke="rgb(246,222,107)" stroke-width="1" opacity="0.9921568627450981" d="M 20.5 12 L 21.5 14 L 12.5 15 L 11 16.5 L 10.5 18 L 10 15 L 12 14.5 L 11.5 13 L 19.5 13 L 20.5 12 Z "></path><path fill="rgb(246,222,107)" stroke="rgb(246,222,107)" stroke-width="1" opacity="0.9921568627450981" d="M 24.5 12 L 25 14 L 23 13.5 L 24.5 12 Z "></path><path fill="rgb(246,222,107)" stroke="rgb(246,222,107)" stroke-width="1" opacity="0.9921568627450981" d="M 27.5 12 L 28 14 L 26 13.5 L 27.5 12 Z "></path><path fill="rgb(246,222,107)" stroke="rgb(246,222,107)" stroke-width="1" opacity="0.9921568627450981" d="M 47.5 12 L 51 13 L 51 24.5 L 52 25.5 Q 49.5 27 51 32.5 L 51 34.5 L 51 52.5 L 53.5 55 L 65.5 55 L 68 56 Q 69.8 62.1 66.5 64 L 46.5 64 L 44 63 L 43 60.5 L 45 60 L 46.5 63 L 51.5 62 L 52.5 63 L 65.5 63 Q 68.3 61.6 67 57 L 55.5 57 L 54.5 56 Q 52.8 58.7 51 54.5 L 49 51.5 L 50 49.5 L 49 47.5 L 50 46.5 L 50 15.5 L 46.5 14 L 44 18.5 L 44.5 22 L 43 18.5 L 44 15.5 L 45.5 13 L 47.5 12 Z "></path><path fill="rgb(246,222,107)" stroke="rgb(246,222,107)" stroke-width="1" opacity="0.9921568627450981" d="M 153.5 12 L 156.5 13 L 158 12.5 Q 158.5 15.5 151.5 14 L 148.5 16 L 148 14 L 153.5 12 Z "></path><path fill="rgb(246,222,107)" stroke="rgb(246,222,107)" stroke-width="1" opacity="0.9921568627450981" d="M 253.5 12 Q 259.3 12.3 262 15.5 L 260.5 15 L 254.5 14 L 253.5 12 Z "></path><path fill="rgb(246,222,107)" stroke="rgb(246,222,107)" stroke-width="1" opacity="0.9921568627450981" d="M 31.5 13 L 33.5 16 L 35 15.5 L 34 17.5 L 34.5 19 L 33 18.5 Q 33.8 20.8 31.5 20 L 31.5 21 L 33 21.5 L 19.5 22 L 18 23.5 L 17.5 25 L 17 23.5 L 20.5 20 L 32 19 L 33 16.5 Q 30 15.5 31.5 13 Z "></path><path fill="rgb(246,222,107)" stroke="rgb(246,222,107)" stroke-width="1" opacity="0.9921568627450981" d="M 77.5 13 L 80 13.5 L 77 15.5 L 76.5 40 L 76 31.5 L 75 30.5 L 76 29.5 L 76 14.5 L 77.5 13 Z "></path><path fill="rgb(246,222,107)" stroke="rgb(246,222,107)" stroke-width="1" opacity="0.9921568627450981" d="M 81.5 13 L 84 14.5 L 84 61.5 L 83 64 L 76 61.5 L 77.5 61 L 82 63 L 83 58.5 L 82 56.5 L 83 54.5 L 82 52.5 L 83 51.5 L 83 15.5 L 81.5 13 Z "></path><path fill="rgb(246,222,107)" stroke="rgb(246,222,107)" stroke-width="1" opacity="0.9921568627450981" d="M 95 13 L 98 14.5 L 110 28.5 L 111 32 L 117 36.5 L 118 40 L 123 41 L 124.5 32 L 125 38.5 L 122.5 42 L 119.5 43 L 119.5 41 L 117 39.5 L 112.5 33 L 110.5 34 L 110 31.5 L 108 27 L 104 25.5 Q 104.5 20.5 100.5 20 L 97 18.5 L 99 17.5 L 95 17 L 95 60.5 L 97.5 63 L 99 63.5 L 96.5 64 L 94 60.5 L 94 21.5 L 93 18.5 L 95 13 Z "></path><path fill="rgb(246,222,107)" stroke="rgb(246,222,107)" stroke-width="1" opacity="0.9921568627450981" d="M 125.5 13 L 128 13.5 L 125 15.5 L 124.5 20 L 124 14.5 L 125.5 13 Z "></path><path fill="rgb(246,222,107)" stroke="rgb(246,222,107)" stroke-width="1" opacity="0.9921568627450981" d="M 129.5 13 L 132 14.5 L 132 56.5 L 131 57.5 L 132 62 L 129 60.5 L 131 60.5 L 130 57.5 L 131 56.5 L 131 15.5 L 129.5 13 Z "></path><path fill="rgb(246,222,107)" stroke="rgb(246,222,107)" stroke-width="1" opacity="0.9921568627450981" d="M 159.5 13 Q 164.6 12.4 166 15.5 Q 166.8 20.3 163.5 21 L 153 20 L 151.5 23 L 150 22.5 L 149 26.5 L 150 30 Q 146.5 31.1 148 23.5 Q 150.2 17.6 159.5 19 L 163 20 L 163 18 Q 165.7 19.1 165 16.5 Q 164.3 13.3 159.5 14 L 159.5 13 Z "></path><path fill="rgb(246,222,107)" stroke="rgb(246,222,107)" stroke-width="1" opacity="0.9921568627450981" d="M 247.5 13 L 250 13.5 L 241.5 20 L 243.5 16 L 242 15.5 L 247.5 13 Z "></path><path fill="rgb(246,222,107)" stroke="rgb(246,222,107)" stroke-width="1" opacity="0.9921568627450981" d="M 193 14 L 195 14 L 195 17 Q 198 15.8 197 19.5 L 200 24.5 L 198 25 L 194.5 17 L 190 24.5 L 186.5 35 L 186 32.5 L 192 19.5 L 193 14 Z "></path><path fill="rgb(246,222,107)" stroke="rgb(246,222,107)" stroke-width="1" opacity="0.9921568627450981" d="M 290.5 14 L 293 15.5 L 291.5 18 L 290 17.5 L 289.5 19 L 289 17.5 Q 292.1 15.7 290.5 14 Z "></path><path fill="rgb(246,222,107)" stroke="rgb(246,222,107)" stroke-width="1" opacity="0.9921568627450981" d="M 146.5 15 L 147 17.5 L 142.5 21 L 143.5 19 L 145 18.5 L 144.5 17 L 146 17.5 L 146.5 15 Z "></path><path fill="rgb(246,222,107)" stroke="rgb(246,222,107)" stroke-width="1" opacity="0.9921568627450981" d="M 261.5 17 L 262 19.5 L 258.5 22 L 253 19.5 L 256.5 19 L 260.5 20 L 261.5 17 Z "></path><path fill="rgb(246,222,107)" stroke="rgb(246,222,107)" stroke-width="1" opacity="0.9921568627450981" d="M 293.5 17 L 296 23.5 L 295 23.5 Q 291.9 21.5 293.5 17 Z "></path><path fill="rgb(246,222,107)" stroke="rgb(246,222,107)" stroke-width="1" opacity="0.9921568627450981" d="M 10.5 19 L 11 47.5 L 10 47.5 L 10.5 19 Z "></path><path fill="rgb(246,222,107)" stroke="rgb(246,222,107)" stroke-width="1" opacity="0.9921568627450981" d="M 249.5 19 L 251 19.5 L 245.5 24 L 249.5 19 Z "></path><path fill="rgb(246,222,107)" stroke="rgb(246,222,107)" stroke-width="1" opacity="0.9921568627450981" d="M 239.5 20 L 239 21.5 L 238.5 25 L 238 21.5 L 239.5 20 Z "></path><path fill="rgb(246,222,107)" stroke="rgb(246,222,107)" stroke-width="1" opacity="0.9921568627450981" d="M 288.5 20 L 289 21.5 L 279.5 44 L 278 43.5 L 286 25.5 L 286 22.5 L 288.5 20 Z "></path><path fill="rgb(246,222,107)" stroke="rgb(246,222,107)" stroke-width="1" opacity="0.9921568627450981" d="M 124.5 21 L 125 30.5 L 124 30.5 L 124.5 21 Z "></path><path fill="rgb(246,222,107)" stroke="rgb(246,222,107)" stroke-width="1" opacity="0.9921568627450981" d="M 142.5 22 L 143 23.5 L 142 25.5 L 144 33 Q 141 34.3 142 30.5 Q 139.5 29 141 23.5 L 142.5 22 Z "></path><path fill="rgb(246,222,107)" stroke="rgb(246,222,107)" stroke-width="1" opacity="0.9921568627450981" d="M 43 23 Q 46 22 45 25 Q 42 26 43 23 Z "></path><path fill="rgb(246,222,107)" stroke="rgb(246,222,107)" stroke-width="1" opacity="0.9921568627450981" d="M 245.5 25 L 247 30 Q 242.9 31.2 245.5 25 Z "></path><path fill="rgb(246,222,107)" stroke="rgb(246,222,107)" stroke-width="1" opacity="0.9921568627450981" d="M 295.5 25 L 298 26.5 L 296 27.5 L 295.5 25 Z "></path><path fill="rgb(246,222,107)" stroke="rgb(246,222,107)" stroke-width="1" opacity="0.9921568627450981" d="M 17.5 26 L 18 28.5 L 17 28.5 L 17.5 26 Z "></path><path fill="rgb(246,222,107)" stroke="rgb(246,222,107)" stroke-width="1" opacity="0.9921568627450981" d="M 43 26 Q 45.7 24.9 45 27.5 L 43 28.5 L 43 26 Z "></path><path fill="rgb(246,222,107)" stroke="rgb(246,222,107)" stroke-width="1" opacity="0.9921568627450981" d="M 199.5 26 L 202 30.5 L 200 29.5 L 199.5 26 Z "></path><path fill="rgb(246,222,107)" stroke="rgb(246,222,107)" stroke-width="1" opacity="0.9921568627450981" d="M 238.5 26 L 240 29.5 L 240 31.5 L 242.5 36 L 245 37.5 L 243 38.5 L 238 31.5 L 238.5 26 Z "></path><path fill="rgb(246,222,107)" stroke="rgb(246,222,107)" stroke-width="1" opacity="0.9921568627450981" d="M 297.5 29 L 299 31.5 L 297 30.5 L 297.5 29 Z "></path><path fill="rgb(246,222,107)" stroke="rgb(246,222,107)" stroke-width="1" opacity="0.9921568627450981" d="M 17.5 30 L 19.5 34 Q 28.4 32.1 32 35.5 L 30.5 36 L 29.5 35 L 21.5 35 L 19.5 36 Q 15.9 34.1 17.5 30 Z "></path><path fill="rgb(246,222,107)" stroke="rgb(246,222,107)" stroke-width="1" opacity="0.9921568627450981" d="M 43 30 Q 46.3 28.9 45 33 Q 41.7 34.1 43 30 Z "></path><path fill="rgb(246,222,107)" stroke="rgb(246,222,107)" stroke-width="1" opacity="0.9921568627450981" d="M 203.5 31 L 203 32.5 L 202.5 34 L 202 32.5 L 203.5 31 Z "></path><path fill="rgb(246,222,107)" stroke="rgb(246,222,107)" stroke-width="1" opacity="0.9921568627450981" d="M 247.5 31 L 251 33 Q 252 36 249 35 L 247.5 31 Z "></path><path fill="rgb(246,222,107)" stroke="rgb(246,222,107)" stroke-width="1" opacity="0.9921568627450981" d="M 151.5 32 Q 154.2 35.8 160 35 L 160.5 37 L 162 36.5 Q 161.3 38.8 163.5 38 Q 170.3 40.7 170 50.5 L 169 50.5 Q 169.8 43.2 165.5 41 L 158.5 36 L 152 35 L 151.5 32 Z "></path><path fill="rgb(246,222,107)" stroke="rgb(246,222,107)" stroke-width="1" opacity="0.9921568627450981" d="M 299.5 33 L 305 45.5 L 303 44.5 L 299.5 33 Z "></path><path fill="rgb(246,222,107)" stroke="rgb(246,222,107)" stroke-width="1" opacity="0.9921568627450981" d="M 253.5 34 L 254 36.5 L 252 35.5 L 253.5 34 Z "></path><path fill="rgb(246,222,107)" stroke="rgb(246,222,107)" stroke-width="1" opacity="0.9921568627450981" d="M 290.5 34 L 290 35.5 L 289 37.5 L 289.5 39 L 287 40.5 L 287.5 42 L 286 42.5 L 286 44.5 Q 284.8 49.8 287.5 51 L 294 50 Q 295.1 52.7 292.5 52 L 290 51 Q 291.1 53.7 288.5 53 Q 283.3 51.3 285 42.5 L 288 35 L 290.5 34 Z "></path><path fill="rgb(246,222,107)" stroke="rgb(246,222,107)" stroke-width="1" opacity="0.9921568627450981" d="M 43 35 L 45 35.5 L 45 46.5 L 43.5 50 L 43 46.5 L 43 44.5 L 43 35 Z "></path><path fill="rgb(246,222,107)" stroke="rgb(246,222,107)" stroke-width="1" opacity="0.9921568627450981" d="M 105.5 35 L 110 37 Q 110.5 41.7 114.5 44 L 117 45.5 L 119.5 49 L 121.5 48 L 121 49.5 L 121.5 51 L 123 50.5 Q 120.7 54.2 118.5 49 L 114 45.5 L 112.5 43 L 110 41.5 Q 111.1 38.2 108.5 39 L 105.5 35 Z "></path><path fill="rgb(246,222,107)" stroke="rgb(246,222,107)" stroke-width="1" opacity="0.9921568627450981" d="M 193.5 35 L 194 37 L 191 36.5 L 193.5 35 Z "></path><path fill="rgb(246,222,107)" stroke="rgb(246,222,107)" stroke-width="1" opacity="0.9921568627450981" d="M 195.5 35 L 196 37 Q 199 35.8 198 39.5 L 198.5 41 L 196 39.5 Q 198.5 38 195 36.5 L 195.5 35 Z "></path><path fill="rgb(246,222,107)" stroke="rgb(246,222,107)" stroke-width="1" opacity="0.9921568627450981" d="M 203.5 35 L 214 59.5 L 214 62.5 L 213 62.5 L 204 39.5 L 203.5 35 Z "></path><path fill="rgb(246,222,107)" stroke="rgb(246,222,107)" stroke-width="1" opacity="0.9921568627450981" d="M 255.5 35 L 258 36 L 257.5 38 L 255 37 L 255.5 35 Z "></path><path fill="rgb(246,222,107)" stroke="rgb(246,222,107)" stroke-width="1" opacity="0.9921568627450981" d="M 292.5 35 L 296 39.5 L 296 42.5 L 295 42.5 L 292.5 35 Z "></path><path fill="rgb(246,222,107)" stroke="rgb(246,222,107)" stroke-width="1" opacity="0.9921568627450981" d="M 102.5 36 L 103 38.5 L 101 39.5 L 102.5 36 Z "></path><path fill="rgb(246,222,107)" stroke="rgb(246,222,107)" stroke-width="1" opacity="0.9921568627450981" d="M 27.5 37 L 26.5 39 L 27.5 37 Z "></path><path fill="rgb(246,222,107)" stroke="rgb(246,222,107)" stroke-width="1" opacity="0.9921568627450981" d="M 30.5 37 L 33 40.5 L 31 41 L 30.5 43 L 28.5 43 L 25.5 42 L 23.5 43 L 21.5 42 L 18 43 L 18 50.5 L 17 51.5 L 19.5 55 L 30 56.5 L 20.5 57 L 16 53.5 L 15 50.5 Q 18.2 48 17 42 L 19.5 41 L 31 40.5 L 29 39.5 L 30.5 37 Z "></path><path fill="rgb(246,222,107)" stroke="rgb(246,222,107)" stroke-width="1" opacity="0.9921568627450981" d="M 259.5 37 L 261 40 L 264 41.5 L 261 42 L 260.5 40 L 259 40.5 L 259 38.5 L 259.5 37 Z "></path><path fill="rgb(246,222,107)" stroke="rgb(246,222,107)" stroke-width="1" opacity="0.9921568627450981" d="M 148.5 38 L 151 39.5 L 149.5 40 L 148.5 38 Z "></path><path fill="rgb(246,222,107)" stroke="rgb(246,222,107)" stroke-width="1" opacity="0.9921568627450981" d="M 191.5 38 L 192.5 40 L 190 39.5 L 191.5 38 Z "></path><path fill="rgb(246,222,107)" stroke="rgb(246,222,107)" stroke-width="1" opacity="0.9921568627450981" d="M 152 39 Q 156.7 39.5 159 43.5 L 157.5 43 L 153.5 41 L 152 41.5 L 152 39 Z "></path><path fill="rgb(246,222,107)" stroke="rgb(246,222,107)" stroke-width="1" opacity="0.9921568627450981" d="M 247.5 39 L 258 44.5 L 255.5 45 L 248.5 41 L 247.5 39 Z "></path><path fill="rgb(246,222,107)" stroke="rgb(246,222,107)" stroke-width="1" opacity="0.9921568627450981" d="M 76.5 41 L 77 54.5 L 76 54.5 L 76.5 41 Z "></path><path fill="rgb(246,222,107)" stroke="rgb(246,222,107)" stroke-width="1" opacity="0.9921568627450981" d="M 101.5 41 L 102 53.5 L 101 53.5 L 101.5 41 Z "></path><path fill="rgb(246,222,107)" stroke="rgb(246,222,107)" stroke-width="1" opacity="0.9921568627450981" d="M 182.5 42 L 183 43.5 L 181.5 47 L 181 44.5 L 182.5 42 Z "></path><path fill="rgb(246,222,107)" stroke="rgb(246,222,107)" stroke-width="1" opacity="0.9921568627450981" d="M 199.5 42 L 201 49.5 L 198.5 52 L 196.5 52 L 194.5 51 L 190.5 52 Q 187.2 50 188 45 L 190 44.5 L 188 43.5 L 189.5 43 Q 192.8 44.8 189 46.5 Q 187.9 49.8 190.5 49 L 195.5 51 L 200 49 Q 200.8 45.6 198 44.5 L 199.5 42 Z "></path><path fill="rgb(246,222,107)" stroke="rgb(246,222,107)" stroke-width="1" opacity="0.9921568627450981" d="M 296.5 44 L 297 46.5 L 296 46.5 L 296.5 44 Z "></path><path fill="rgb(246,222,107)" stroke="rgb(246,222,107)" stroke-width="1" opacity="0.9921568627450981" d="M 161.5 45 L 162.5 47 Q 159.7 47.7 161.5 45 Z "></path><path fill="rgb(246,222,107)" stroke="rgb(246,222,107)" stroke-width="1" opacity="0.9921568627450981" d="M 265.5 45 L 267 49.5 L 265.5 57 L 264 56.5 L 263 60 L 255.5 64 L 247 64 L 247.5 62 Q 248.7 64.3 253.5 63 L 262 59 L 265 54.5 L 266 48.5 L 265.5 45 Z "></path><path fill="rgb(246,222,107)" stroke="rgb(246,222,107)" stroke-width="1" opacity="0.9921568627450981" d="M 277 45 L 279 45.5 L 277.5 49 L 277 45 Z "></path><path fill="rgb(246,222,107)" stroke="rgb(246,222,107)" stroke-width="1" opacity="0.9921568627450981" d="M 304.5 47 L 310 58.5 L 308.5 59 Q 305.5 57.4 307 52 Q 304 53.3 305 49.5 L 304.5 47 Z "></path><path fill="rgb(246,222,107)" stroke="rgb(246,222,107)" stroke-width="1" opacity="0.9921568627450981" d="M 162.5 48 Q 165.5 49.5 162.5 51 L 162.5 48 Z "></path><path fill="rgb(246,222,107)" stroke="rgb(246,222,107)" stroke-width="1" opacity="0.9921568627450981" d="M 296.5 48 L 298 48.5 L 295.5 52 L 295 49.5 L 296.5 48 Z "></path><path fill="rgb(246,222,107)" stroke="rgb(246,222,107)" stroke-width="1" opacity="0.9921568627450981" d="M 10.5 49 L 11 60.5 L 13.5 63 L 15.5 63 L 17.5 62 L 18.5 64 L 14.5 63 L 12.5 64 L 10 61.5 L 10.5 49 Z "></path><path fill="rgb(246,222,107)" stroke="rgb(246,222,107)" stroke-width="1" opacity="0.9921568627450981" d="M 257.5 49 Q 261.7 47.7 260 52.5 Q 257.8 57.3 250.5 57 L 250.5 56 L 253.5 56 L 259 52.5 L 257.5 49 Z "></path><path fill="rgb(246,222,107)" stroke="rgb(246,222,107)" stroke-width="1" opacity="0.9921568627450981" d="M 276.5 50 L 277 52 L 275 51.5 L 276.5 50 Z "></path><path fill="rgb(246,222,107)" stroke="rgb(246,222,107)" stroke-width="1" opacity="0.9921568627450981" d="M 43.5 51 L 44 53.5 L 43 53.5 L 43.5 51 Z "></path><path fill="rgb(246,222,107)" stroke="rgb(246,222,107)" stroke-width="1" opacity="0.9921568627450981" d="M 179.5 51 L 179 52.5 L 178.5 54 L 178 52.5 L 179.5 51 Z "></path><path fill="rgb(246,222,107)" stroke="rgb(246,222,107)" stroke-width="1" opacity="0.9921568627450981" d="M 161.5 52 L 162 53.5 Q 158.6 58.6 148.5 57 L 143.5 55 Q 140.8 56.4 142 61 Q 148 59.8 150.5 63 L 152.5 63 L 160 61 L 159.5 64 L 157.5 63 L 152.5 64 L 149.5 63 L 142.5 62 L 141 60.5 L 140 58.5 L 142.5 54 L 149.5 56 L 155.5 56 L 161.5 52 Z "></path><path fill="rgb(246,222,107)" stroke="rgb(246,222,107)" stroke-width="1" opacity="0.9921568627450981" d="M 168.5 52 L 169 56 Q 166.3 57.1 167 54.5 L 168.5 52 Z "></path><path fill="rgb(246,222,107)" stroke="rgb(246,222,107)" stroke-width="1" opacity="0.9921568627450981" d="M 273.5 52 L 275 54.5 L 274 54.5 L 273.5 52 Z "></path><path fill="rgb(246,222,107)" stroke="rgb(246,222,107)" stroke-width="1" opacity="0.9921568627450981" d="M 120.5 53 L 126 57.5 L 124.5 58 L 122 54 L 120.5 53 Z "></path><path fill="rgb(246,222,107)" stroke="rgb(246,222,107)" stroke-width="1" opacity="0.9921568627450981" d="M 238.5 54 L 248 55.5 L 242.5 56 L 238 55 Q 237 59.7 240.5 61 L 246 62.5 L 244.5 63 L 241.5 62 L 239.5 61 L 238 61.5 L 237 55.5 L 238.5 54 Z "></path><path fill="rgb(246,222,107)" stroke="rgb(246,222,107)" stroke-width="1" opacity="0.9921568627450981" d="M 31.5 55 L 34 56 L 33.5 58 L 31.5 55 Z "></path><path fill="rgb(246,222,107)" stroke="rgb(246,222,107)" stroke-width="1" opacity="0.9921568627450981" d="M 43 55 L 45 55.5 L 43.5 58 L 43 55 Z "></path><path fill="rgb(246,222,107)" stroke="rgb(246,222,107)" stroke-width="1" opacity="0.9921568627450981" d="M 177.5 55 L 178 56.5 L 176 61.5 L 179.5 63 L 182 62 Q 180.5 58.2 183.5 59 L 187.5 57 L 187.5 58 L 184 59.5 L 184.5 61 L 177.5 64 L 175 63 Q 174.3 57.7 177.5 55 Z "></path><path fill="rgb(246,222,107)" stroke="rgb(246,222,107)" stroke-width="1" opacity="0.9921568627450981" d="M 76.5 56 L 77 59.5 L 76 59.5 L 76.5 56 Z "></path><path fill="rgb(246,222,107)" stroke="rgb(246,222,107)" stroke-width="1" opacity="0.9921568627450981" d="M 194.5 56 L 196.5 57 L 198.5 56 L 201 56.5 L 199.5 58 L 189.5 58 L 189.5 57 L 194.5 56 Z "></path><path fill="rgb(246,222,107)" stroke="rgb(246,222,107)" stroke-width="1" opacity="0.9921568627450981" d="M 202.5 56 L 206 58.5 L 208.5 63 L 210.5 62 L 211.5 64 L 206 63 L 202.5 56 Z "></path><path fill="rgb(246,222,107)" stroke="rgb(246,222,107)" stroke-width="1" opacity="0.9921568627450981" d="M 274.5 56 L 275 57.5 L 271.5 62 L 271 60.5 L 274.5 56 Z "></path><path fill="rgb(246,222,107)" stroke="rgb(246,222,107)" stroke-width="1" opacity="0.9921568627450981" d="M 279.5 56 L 283 57.5 L 278.5 63 L 272.5 64 L 272.5 63 Q 278 64 279 60.5 L 280 57.5 L 279.5 56 Z "></path><path fill="rgb(246,222,107)" stroke="rgb(246,222,107)" stroke-width="1" opacity="0.9921568627450981" d="M 296.5 56 L 301 57.5 L 298.5 58 L 296.5 57 L 295 57.5 L 296.5 56 Z "></path><path fill="rgb(246,222,107)" stroke="rgb(246,222,107)" stroke-width="1" opacity="0.9921568627450981" d="M 284.5 57 L 294 57.5 L 284.5 58 L 284.5 57 Z "></path><path fill="rgb(246,222,107)" stroke="rgb(246,222,107)" stroke-width="1" opacity="0.9921568627450981" d="M 101.5 58 L 102 62.5 L 101 62.5 L 101.5 58 Z "></path><path fill="rgb(246,222,107)" stroke="rgb(246,222,107)" stroke-width="1" opacity="0.9921568627450981" d="M 165.5 58 L 166.5 60 L 165 59.5 L 163.5 62 L 161 61.5 L 165.5 58 Z "></path><path fill="rgb(246,222,107)" stroke="rgb(246,222,107)" stroke-width="1" opacity="0.9921568627450981" d="M 301.5 59 L 303 62 L 306 63.5 L 304.5 64 L 301.5 59 Z "></path><path fill="rgb(246,222,107)" stroke="rgb(246,222,107)" stroke-width="1" opacity="0.9921568627450981" d="M 309.5 60 L 311 62.5 L 307.5 64 L 307.5 63 L 310 61.5 L 309.5 60 Z "></path><path fill="rgb(246,222,107)" stroke="rgb(246,222,107)" stroke-width="1" opacity="0.9921568627450981" d="M 33.5 61 L 34 63 L 32 62.5 L 33.5 61 Z "></path><path fill="rgb(246,222,107)" stroke="rgb(246,222,107)" stroke-width="1" opacity="0.9921568627450981" d="M 22.5 63 L 26 63.5 L 22.5 64 L 22.5 63 Z "></path><path fill="rgb(177,161,95)" stroke="rgb(177,161,95)" stroke-width="1" opacity="0.9529411764705882" d="M 194.5 9 L 196 11.5 L 195 11.5 L 194.5 10 L 193 10.5 L 194.5 9 Z "></path><path fill="rgb(177,161,95)" stroke="rgb(177,161,95)" stroke-width="1" opacity="0.9529411764705882" d="M 96.5 10 L 97.5 12 L 96.5 10 Z "></path><path fill="rgb(177,161,95)" stroke="rgb(177,161,95)" stroke-width="1" opacity="0.9529411764705882" d="M 130.5 10 L 133 11.5 L 123 12 L 122.5 36 L 122 11 L 129.5 11 L 130.5 10 Z "></path><path fill="rgb(177,161,95)" stroke="rgb(177,161,95)" stroke-width="1" opacity="0.9529411764705882" d="M 8 11 L 11 11.5 L 9 12 L 8.5 64 L 8 11 Z "></path><path fill="rgb(177,161,95)" stroke="rgb(177,161,95)" stroke-width="1" opacity="0.9529411764705882" d="M 12.5 11 L 25 11.5 L 12.5 12 L 12.5 11 Z "></path><path fill="rgb(177,161,95)" stroke="rgb(177,161,95)" stroke-width="1" opacity="0.9529411764705882" d="M 29.5 11 L 33 11.5 L 29.5 12 L 29.5 11 Z "></path><path fill="rgb(177,161,95)" stroke="rgb(177,161,95)" stroke-width="1" opacity="0.9529411764705882" d="M 42.5 11 L 48 11.5 L 42.5 12 L 42.5 11 Z "></path><path fill="rgb(177,161,95)" stroke="rgb(177,161,95)" stroke-width="1" opacity="0.9529411764705882" d="M 49.5 11 L 53 11.5 L 53 53 L 68.5 53 L 68.5 54 L 52 54 L 52 12.5 L 49.5 12 L 49.5 11 Z "></path><path fill="rgb(177,161,95)" stroke="rgb(177,161,95)" stroke-width="1" opacity="0.9529411764705882" d="M 74 11 L 85 11.5 L 75 12 L 74.5 64 L 74 11 Z "></path><path fill="rgb(177,161,95)" stroke="rgb(177,161,95)" stroke-width="1" opacity="0.9529411764705882" d="M 246.5 11 L 249 11.5 L 246.5 12 L 246.5 11 Z "></path><path fill="rgb(177,161,95)" stroke="rgb(177,161,95)" stroke-width="1" opacity="0.9529411764705882" d="M 244.5 12 L 243.5 14 L 244.5 12 Z "></path><path fill="rgb(177,161,95)" stroke="rgb(177,161,95)" stroke-width="1" opacity="0.9529411764705882" d="M 167.5 13 L 168 15.5 L 167 15.5 L 167.5 13 Z "></path><path fill="rgb(177,161,95)" stroke="rgb(177,161,95)" stroke-width="1" opacity="0.9529411764705882" d="M 293.5 13 L 295 16.5 L 294 16.5 L 293.5 13 Z "></path><path fill="rgb(177,161,95)" stroke="rgb(177,161,95)" stroke-width="1" opacity="0.9529411764705882" d="M 99.5 14 L 101.5 17 L 99.5 14 Z "></path><path fill="rgb(177,161,95)" stroke="rgb(177,161,95)" stroke-width="1" opacity="0.9529411764705882" d="M 241.5 14 L 240.5 16 L 241.5 14 Z "></path><path fill="rgb(177,161,95)" stroke="rgb(177,161,95)" stroke-width="1" opacity="0.9529411764705882" d="M 143.5 15 L 144 16.5 L 141.5 20 L 141 18.5 L 143.5 15 Z "></path><path fill="rgb(177,161,95)" stroke="rgb(177,161,95)" stroke-width="1" opacity="0.9529411764705882" d="M 263.5 16 L 264 20.5 L 263 20.5 L 263.5 16 Z "></path><path fill="rgb(177,161,95)" stroke="rgb(177,161,95)" stroke-width="1" opacity="0.9529411764705882" d="M 166.5 18 L 167 22.5 L 166 22.5 L 166.5 18 Z "></path><path fill="rgb(177,161,95)" stroke="rgb(177,161,95)" stroke-width="1" opacity="0.9529411764705882" d="M 159.5 21 L 162 21.5 L 159.5 22 L 159.5 21 Z "></path><path fill="rgb(177,161,95)" stroke="rgb(177,161,95)" stroke-width="1" opacity="0.9529411764705882" d="M 249.5 21 L 252 21.5 L 248 23.5 L 247.5 25 L 247 23.5 L 249.5 21 Z "></path><path fill="rgb(177,161,95)" stroke="rgb(177,161,95)" stroke-width="1" opacity="0.9529411764705882" d="M 106.5 22 L 108.5 25 L 106.5 22 Z "></path><path fill="rgb(177,161,95)" stroke="rgb(177,161,95)" stroke-width="1" opacity="0.9529411764705882" d="M 236.5 22 L 237 25.5 L 236 25.5 L 236.5 22 Z "></path><path fill="rgb(177,161,95)" stroke="rgb(177,161,95)" stroke-width="1" opacity="0.9529411764705882" d="M 139.5 25 L 140 27.5 L 139 27.5 L 139.5 25 Z "></path><path fill="rgb(177,161,95)" stroke="rgb(177,161,95)" stroke-width="1" opacity="0.9529411764705882" d="M 110.5 27 L 113.5 31 L 110.5 27 Z "></path><path fill="rgb(177,161,95)" stroke="rgb(177,161,95)" stroke-width="1" opacity="0.9529411764705882" d="M 236.5 27 L 238 32.5 L 236 31.5 L 236.5 27 Z "></path><path fill="rgb(177,161,95)" stroke="rgb(177,161,95)" stroke-width="1" opacity="0.9529411764705882" d="M 19.5 32 L 33 32.5 L 19.5 33 L 19.5 32 Z "></path><path fill="rgb(177,161,95)" stroke="rgb(177,161,95)" stroke-width="1" opacity="0.9529411764705882" d="M 116.5 34 L 118.5 37 L 116.5 34 Z "></path><path fill="rgb(177,161,95)" stroke="rgb(177,161,95)" stroke-width="1" opacity="0.9529411764705882" d="M 238.5 34 L 242.5 39 L 238.5 34 Z "></path><path fill="rgb(177,161,95)" stroke="rgb(177,161,95)" stroke-width="1" opacity="0.9529411764705882" d="M 142.5 35 L 145.5 39 L 142.5 35 Z "></path><path fill="rgb(177,161,95)" stroke="rgb(177,161,95)" stroke-width="1" opacity="0.9529411764705882" d="M 291.5 35 L 290.5 37 L 291.5 35 Z "></path><path fill="rgb(177,161,95)" stroke="rgb(177,161,95)" stroke-width="1" opacity="0.9529411764705882" d="M 103.5 36 L 104 41.5 L 103 41.5 L 103.5 36 Z "></path><path fill="rgb(177,161,95)" stroke="rgb(177,161,95)" stroke-width="1" opacity="0.9529411764705882" d="M 262.5 37 L 265.5 41 L 262.5 37 Z "></path><path fill="rgb(177,161,95)" stroke="rgb(177,161,95)" stroke-width="1" opacity="0.9529411764705882" d="M 106.5 38 L 110.5 43 L 106.5 38 Z "></path><path fill="rgb(177,161,95)" stroke="rgb(177,161,95)" stroke-width="1" opacity="0.9529411764705882" d="M 167.5 39 L 169.5 42 L 167.5 39 Z "></path><path fill="rgb(177,161,95)" stroke="rgb(177,161,95)" stroke-width="1" opacity="0.9529411764705882" d="M 103.5 43 L 104 63.5 L 103 63.5 L 103.5 43 Z "></path><path fill="rgb(177,161,95)" stroke="rgb(177,161,95)" stroke-width="1" opacity="0.9529411764705882" d="M 252.5 43 L 255 44.5 L 253.5 44 L 252.5 43 Z "></path><path fill="rgb(177,161,95)" stroke="rgb(177,161,95)" stroke-width="1" opacity="0.9529411764705882" d="M 158.5 44 L 159.5 46 L 158.5 44 Z "></path><path fill="rgb(177,161,95)" stroke="rgb(177,161,95)" stroke-width="1" opacity="0.9529411764705882" d="M 295.5 46 L 296 49 L 286.5 49 L 286 47.5 L 287.5 48 Q 295.6 49.8 295.5 46 Z "></path><path fill="rgb(177,161,95)" stroke="rgb(177,161,95)" stroke-width="1" opacity="0.9529411764705882" d="M 190.5 48 L 198 48.5 L 190.5 49 L 190.5 48 Z "></path><path fill="rgb(177,161,95)" stroke="rgb(177,161,95)" stroke-width="1" opacity="0.9529411764705882" d="M 116.5 49 L 118.5 52 L 116.5 49 Z "></path><path fill="rgb(177,161,95)" stroke="rgb(177,161,95)" stroke-width="1" opacity="0.9529411764705882" d="M 236.5 50 L 237 53.5 L 236 53.5 L 236.5 50 Z "></path><path fill="rgb(177,161,95)" stroke="rgb(177,161,95)" stroke-width="1" opacity="0.9529411764705882" d="M 256.5 51 L 255.5 53 L 256.5 51 Z "></path><path fill="rgb(177,161,95)" stroke="rgb(177,161,95)" stroke-width="1" opacity="0.9529411764705882" d="M 19.5 53 L 36 53 L 36 63.5 L 35 63.5 L 35 54 L 19.5 54 L 19.5 53 Z "></path><path fill="rgb(177,161,95)" stroke="rgb(177,161,95)" stroke-width="1" opacity="0.9529411764705882" d="M 139.5 53 L 140 56.5 L 139 56.5 L 139.5 53 Z "></path><path fill="rgb(177,161,95)" stroke="rgb(177,161,95)" stroke-width="1" opacity="0.9529411764705882" d="M 245.5 53 L 248 53.5 L 245.5 54 L 245.5 53 Z "></path><path fill="rgb(177,161,95)" stroke="rgb(177,161,95)" stroke-width="1" opacity="0.9529411764705882" d="M 122.5 56 L 127.5 62 L 122.5 56 Z "></path><path fill="rgb(177,161,95)" stroke="rgb(177,161,95)" stroke-width="1" opacity="0.9529411764705882" d="M 168.5 57 L 167.5 59 L 168.5 57 Z "></path><path fill="rgb(177,161,95)" stroke="rgb(177,161,95)" stroke-width="1" opacity="0.9529411764705882" d="M 191.5 58 L 195 58.5 L 191.5 59 L 191.5 58 Z "></path><path fill="rgb(177,161,95)" stroke="rgb(177,161,95)" stroke-width="1" opacity="0.9529411764705882" d="M 235.5 58 L 236 60.5 L 235 60.5 L 235.5 58 Z "></path><path fill="rgb(177,161,95)" stroke="rgb(177,161,95)" stroke-width="1" opacity="0.9529411764705882" d="M 264.5 58 L 261.5 62 L 264.5 58 Z "></path><path fill="rgb(177,161,95)" stroke="rgb(177,161,95)" stroke-width="1" opacity="0.9529411764705882" d="M 282.5 58 L 297 58.5 L 282.5 59 L 282.5 58 Z "></path><path fill="rgb(177,161,95)" stroke="rgb(177,161,95)" stroke-width="1" opacity="0.9529411764705882" d="M 298.5 58 L 301 59.5 L 300.5 61 L 300 59 L 298.5 58 Z "></path><path fill="rgb(177,161,95)" stroke="rgb(177,161,95)" stroke-width="1" opacity="0.9529411764705882" d="M 165.5 60 L 164.5 62 L 165.5 60 Z "></path><path fill="rgb(177,161,95)" stroke="rgb(177,161,95)" stroke-width="1" opacity="0.9529411764705882" d="M 239.5 62 L 245 63.5 L 241.5 64 L 239.5 62 Z "></path><path fill="rgb(177,161,95)" stroke="rgb(177,161,95)" stroke-width="1" opacity="0.9529411764705882" d="M 152.5 64 L 157 64.5 L 152.5 65 L 152.5 64 Z "></path><path fill="rgb(177,161,95)" stroke="rgb(177,161,95)" stroke-width="1" opacity="0.9529411764705882" d="M 248.5 64 L 254 64.5 L 248.5 65 L 248.5 64 Z "></path><path fill="rgb(79,67,18)" stroke="rgb(79,67,18)" stroke-width="1" opacity="0.34509803921568627" d="M 93.5 9 L 96 9.5 L 93.5 10 L 93.5 9 Z "></path><path fill="rgb(79,67,18)" stroke="rgb(79,67,18)" stroke-width="1" opacity="0.34509803921568627" d="M 8.5 10 L 31 10.5 L 8 11 L 7.5 13 L 7 11.5 L 8.5 10 Z "></path><path fill="rgb(79,67,18)" stroke="rgb(79,67,18)" stroke-width="1" opacity="0.34509803921568627" d="M 33.5 10 L 36 11.5 L 34.5 11 L 33.5 10 Z "></path><path fill="rgb(79,67,18)" stroke="rgb(79,67,18)" stroke-width="1" opacity="0.34509803921568627" d="M 42.5 10 L 46 10.5 L 42.5 11 L 42.5 10 Z "></path><path fill="rgb(79,67,18)" stroke="rgb(79,67,18)" stroke-width="1" opacity="0.34509803921568627" d="M 47.5 10 L 50 10.5 L 47.5 11 L 47.5 10 Z "></path><path fill="rgb(79,67,18)" stroke="rgb(79,67,18)" stroke-width="1" opacity="0.34509803921568627" d="M 76.5 10 L 82 10.5 L 76.5 11 L 76.5 10 Z "></path><path fill="rgb(79,67,18)" stroke="rgb(79,67,18)" stroke-width="1" opacity="0.34509803921568627" d="M 122.5 10 L 130 10.5 L 122.5 11 L 122.5 10 Z "></path><path fill="rgb(79,67,18)" stroke="rgb(79,67,18)" stroke-width="1" opacity="0.34509803921568627" d="M 153.5 10 L 157 10.5 L 153.5 11 L 153.5 10 Z "></path><path fill="rgb(79,67,18)" stroke="rgb(79,67,18)" stroke-width="1" opacity="0.34509803921568627" d="M 158.5 10 L 162 10.5 L 158.5 11 L 158.5 10 Z "></path><path fill="rgb(79,67,18)" stroke="rgb(79,67,18)" stroke-width="1" opacity="0.34509803921568627" d="M 247.5 10 L 257 10.5 L 247.5 11 L 247.5 10 Z "></path><path fill="rgb(79,67,18)" stroke="rgb(79,67,18)" stroke-width="1" opacity="0.34509803921568627" d="M 289.5 10 L 290 11.5 L 288.5 14 L 288 12.5 L 289.5 10 Z "></path><path fill="rgb(79,67,18)" stroke="rgb(79,67,18)" stroke-width="1" opacity="0.34509803921568627" d="M 292.5 10 L 295 14.5 L 294 14.5 L 292.5 10 Z "></path><path fill="rgb(79,67,18)" stroke="rgb(79,67,18)" stroke-width="1" opacity="0.34509803921568627" d="M 73.5 11 L 74 14.5 L 73 14.5 L 73.5 11 Z "></path><path fill="rgb(79,67,18)" stroke="rgb(79,67,18)" stroke-width="1" opacity="0.34509803921568627" d="M 148.5 11 L 150 11.5 L 147.5 13 L 148.5 11 Z "></path><path fill="rgb(79,67,18)" stroke="rgb(79,67,18)" stroke-width="1" opacity="0.34509803921568627" d="M 196.5 11 L 198 14.5 L 197 14.5 L 196.5 11 Z "></path><path fill="rgb(79,67,18)" stroke="rgb(79,67,18)" stroke-width="1" opacity="0.34509803921568627" d="M 41.5 12 L 42 15.5 L 41 15.5 L 41.5 12 Z "></path><path fill="rgb(79,67,18)" stroke="rgb(79,67,18)" stroke-width="1" opacity="0.34509803921568627" d="M 98.5 12 L 99.5 14 L 98.5 12 Z "></path><path fill="rgb(79,67,18)" stroke="rgb(79,67,18)" stroke-width="1" opacity="0.34509803921568627" d="M 243.5 12 L 242.5 14 L 240 15.5 L 236.5 22 L 236 20.5 L 241.5 13 L 243.5 12 Z "></path><path fill="rgb(79,67,18)" stroke="rgb(79,67,18)" stroke-width="1" opacity="0.34509803921568627" d="M 263.5 12 L 264.5 14 L 263.5 12 Z "></path><path fill="rgb(79,67,18)" stroke="rgb(79,67,18)" stroke-width="1" opacity="0.34509803921568627" d="M 145.5 13 L 144.5 15 L 145.5 13 Z "></path><path fill="rgb(79,67,18)" stroke="rgb(79,67,18)" stroke-width="1" opacity="0.34509803921568627" d="M 102.5 17 L 103.5 19 L 102.5 17 Z "></path><path fill="rgb(79,67,18)" stroke="rgb(79,67,18)" stroke-width="1" opacity="0.34509803921568627" d="M 264.5 17 L 265 21.5 Q 264.5 24.5 260.5 24 L 252 21.5 L 255.5 21 L 263 23 L 264.5 17 Z "></path><path fill="rgb(79,67,18)" stroke="rgb(79,67,18)" stroke-width="1" opacity="0.34509803921568627" d="M 41.5 18 L 42 24.5 L 41 24.5 L 41.5 18 Z "></path><path fill="rgb(79,67,18)" stroke="rgb(79,67,18)" stroke-width="1" opacity="0.34509803921568627" d="M 286.5 18 L 286 19.5 L 285.5 22 L 285 19.5 L 286.5 18 Z "></path><path fill="rgb(79,67,18)" stroke="rgb(79,67,18)" stroke-width="1" opacity="0.34509803921568627" d="M 73.5 19 L 74 21.5 L 73 21.5 L 73.5 19 Z "></path><path fill="rgb(79,67,18)" stroke="rgb(79,67,18)" stroke-width="1" opacity="0.34509803921568627" d="M 53.5 20 L 54 22.5 L 53 22.5 L 53.5 20 Z "></path><path fill="rgb(79,67,18)" stroke="rgb(79,67,18)" stroke-width="1" opacity="0.34509803921568627" d="M 106.5 21 L 107.5 23 L 106.5 21 Z "></path><path fill="rgb(79,67,18)" stroke="rgb(79,67,18)" stroke-width="1" opacity="0.34509803921568627" d="M 20.5 22 L 23 22.5 L 19.5 24 L 20.5 22 Z "></path><path fill="rgb(79,67,18)" stroke="rgb(79,67,18)" stroke-width="1" opacity="0.34509803921568627" d="M 32.5 22 L 35 22.5 L 32.5 23 L 32.5 22 Z "></path><path fill="rgb(79,67,18)" stroke="rgb(79,67,18)" stroke-width="1" opacity="0.34509803921568627" d="M 162.5 22 L 167 23.5 L 163.5 24 L 162.5 22 Z "></path><path fill="rgb(79,67,18)" stroke="rgb(79,67,18)" stroke-width="1" opacity="0.34509803921568627" d="M 249.5 22 L 251 22.5 L 248.5 24 L 249.5 22 Z "></path><path fill="rgb(79,67,18)" stroke="rgb(79,67,18)" stroke-width="1" opacity="0.34509803921568627" d="M 298.5 24 L 300 27.5 L 299 27.5 L 298.5 24 Z "></path><path fill="rgb(79,67,18)" stroke="rgb(79,67,18)" stroke-width="1" opacity="0.34509803921568627" d="M 109.5 25 L 110.5 27 L 109.5 25 Z "></path><path fill="rgb(79,67,18)" stroke="rgb(79,67,18)" stroke-width="1" opacity="0.34509803921568627" d="M 150.5 25 L 151 27.5 L 150 27.5 L 150.5 25 Z "></path><path fill="rgb(79,67,18)" stroke="rgb(79,67,18)" stroke-width="1" opacity="0.34509803921568627" d="M 41.5 26 L 42 28.5 L 41 28.5 L 41.5 26 Z "></path><path fill="rgb(79,67,18)" stroke="rgb(79,67,18)" stroke-width="1" opacity="0.34509803921568627" d="M 235.5 26 L 236 30.5 L 235 30.5 L 235.5 26 Z "></path><path fill="rgb(79,67,18)" stroke="rgb(79,67,18)" stroke-width="1" opacity="0.34509803921568627" d="M 247.5 27 L 250 30.5 L 247 28.5 L 247.5 27 Z "></path><path fill="rgb(79,67,18)" stroke="rgb(79,67,18)" stroke-width="1" opacity="0.34509803921568627" d="M 151.5 29 L 152.5 31 L 151.5 29 Z "></path><path fill="rgb(79,67,18)" stroke="rgb(79,67,18)" stroke-width="1" opacity="0.34509803921568627" d="M 28.5 31 Q 33 30 34 32.5 L 33.5 37 L 33 32 L 28.5 32 L 28.5 31 Z "></path><path fill="rgb(79,67,18)" stroke="rgb(79,67,18)" stroke-width="1" opacity="0.34509803921568627" d="M 114.5 31 L 117.5 35 L 114.5 31 Z "></path><path fill="rgb(79,67,18)" stroke="rgb(79,67,18)" stroke-width="1" opacity="0.34509803921568627" d="M 252.5 31 L 255 32.5 L 253.5 32 L 252.5 31 Z "></path><path fill="rgb(79,67,18)" stroke="rgb(79,67,18)" stroke-width="1" opacity="0.34509803921568627" d="M 236.5 32 L 242.5 39 L 248 41.5 L 246.5 42 L 240 39 L 236 33.5 L 236.5 32 Z "></path><path fill="rgb(79,67,18)" stroke="rgb(79,67,18)" stroke-width="1" opacity="0.34509803921568627" d="M 41.5 34 L 42 36.5 L 41 36.5 L 41.5 34 Z "></path><path fill="rgb(79,67,18)" stroke="rgb(79,67,18)" stroke-width="1" opacity="0.34509803921568627" d="M 7.5 35 L 8 37.5 L 7 37.5 L 7.5 35 Z "></path><path fill="rgb(79,67,18)" stroke="rgb(79,67,18)" stroke-width="1" opacity="0.34509803921568627" d="M 163.5 35 L 164.5 37 L 163.5 35 Z "></path><path fill="rgb(79,67,18)" stroke="rgb(79,67,18)" stroke-width="1" opacity="0.34509803921568627" d="M 260.5 35 L 261.5 37 L 260.5 35 Z "></path><path fill="rgb(79,67,18)" stroke="rgb(79,67,18)" stroke-width="1" opacity="0.34509803921568627" d="M 291.5 36 L 290.5 38 L 291.5 36 Z "></path><path fill="rgb(79,67,18)" stroke="rgb(79,67,18)" stroke-width="1" opacity="0.34509803921568627" d="M 119.5 37 L 120.5 39 L 119.5 37 Z "></path><path fill="rgb(79,67,18)" stroke="rgb(79,67,18)" stroke-width="1" opacity="0.34509803921568627" d="M 263.5 37 L 264.5 39 L 263.5 37 Z "></path><path fill="rgb(79,67,18)" stroke="rgb(79,67,18)" stroke-width="1" opacity="0.34509803921568627" d="M 167.5 38 L 168.5 40 L 167.5 38 Z "></path><path fill="rgb(79,67,18)" stroke="rgb(79,67,18)" stroke-width="1" opacity="0.34509803921568627" d="M 33.5 42 L 32.5 44 L 24 43.5 L 32.5 43 L 33.5 42 Z "></path><path fill="rgb(79,67,18)" stroke="rgb(79,67,18)" stroke-width="1" opacity="0.34509803921568627" d="M 19.5 43 L 23 43.5 L 19.5 44 L 19.5 43 Z "></path><path fill="rgb(79,67,18)" stroke="rgb(79,67,18)" stroke-width="1" opacity="0.34509803921568627" d="M 267.5 43 L 269 45.5 L 268 45.5 L 267.5 43 Z "></path><path fill="rgb(79,67,18)" stroke="rgb(79,67,18)" stroke-width="1" opacity="0.34509803921568627" d="M 41.5 44 L 42 48.5 L 41 48.5 L 41.5 44 Z "></path><path fill="rgb(79,67,18)" stroke="rgb(79,67,18)" stroke-width="1" opacity="0.34509803921568627" d="M 112.5 45 L 113.5 47 L 112.5 45 Z "></path><path fill="rgb(79,67,18)" stroke="rgb(79,67,18)" stroke-width="1" opacity="0.34509803921568627" d="M 255.5 45 L 256.5 47 L 255.5 45 Z "></path><path fill="rgb(79,67,18)" stroke="rgb(79,67,18)" stroke-width="1" opacity="0.34509803921568627" d="M 274.5 47 L 275 48.5 L 273.5 51 L 273 49.5 L 274.5 47 Z "></path><path fill="rgb(79,67,18)" stroke="rgb(79,67,18)" stroke-width="1" opacity="0.34509803921568627" d="M 140.5 49 L 140 50.5 L 139.5 53 L 139 50.5 L 140.5 49 Z "></path><path fill="rgb(79,67,18)" stroke="rgb(79,67,18)" stroke-width="1" opacity="0.34509803921568627" d="M 236.5 49 L 238 49.5 L 236 50 L 235.5 53 L 235 50.5 L 236.5 49 Z "></path><path fill="rgb(79,67,18)" stroke="rgb(79,67,18)" stroke-width="1" opacity="0.34509803921568627" d="M 256.5 50 L 255.5 52 L 256.5 50 Z "></path><path fill="rgb(79,67,18)" stroke="rgb(79,67,18)" stroke-width="1" opacity="0.34509803921568627" d="M 41.5 51 L 42 61.5 L 41 61.5 L 41.5 51 Z "></path><path fill="rgb(79,67,18)" stroke="rgb(79,67,18)" stroke-width="1" opacity="0.34509803921568627" d="M 241.5 51 L 245 52.5 L 243.5 53 L 241.5 51 Z "></path><path fill="rgb(79,67,18)" stroke="rgb(79,67,18)" stroke-width="1" opacity="0.34509803921568627" d="M 28.5 52 L 32 52.5 L 28.5 53 L 28.5 52 Z "></path><path fill="rgb(79,67,18)" stroke="rgb(79,67,18)" stroke-width="1" opacity="0.34509803921568627" d="M 309.5 52 L 311 54.5 L 310 54.5 L 309.5 52 Z "></path><path fill="rgb(79,67,18)" stroke="rgb(79,67,18)" stroke-width="1" opacity="0.34509803921568627" d="M 36.5 53 L 37 55.5 L 36 55.5 L 36.5 53 Z "></path><path fill="rgb(79,67,18)" stroke="rgb(79,67,18)" stroke-width="1" opacity="0.34509803921568627" d="M 119.5 53 L 121.5 56 L 119.5 53 Z "></path><path fill="rgb(79,67,18)" stroke="rgb(79,67,18)" stroke-width="1" opacity="0.34509803921568627" d="M 248.5 53 L 253 53.5 L 248.5 54 L 248.5 53 Z "></path><path fill="rgb(79,67,18)" stroke="rgb(79,67,18)" stroke-width="1" opacity="0.34509803921568627" d="M 69.5 54 L 70 63.5 Q 68.8 66.3 63.5 65 L 63.5 64 L 69 64 L 69.5 54 Z "></path><path fill="rgb(79,67,18)" stroke="rgb(79,67,18)" stroke-width="1" opacity="0.34509803921568627" d="M 311.5 57 L 313 59.5 L 312 59.5 L 311.5 57 Z "></path><path fill="rgb(79,67,18)" stroke="rgb(79,67,18)" stroke-width="1" opacity="0.34509803921568627" d="M 36.5 58 L 37 63.5 L 35.5 65 L 7 65 L 7.5 61 L 8 64 L 35.5 64 L 36 63.5 L 36.5 58 Z "></path><path fill="rgb(79,67,18)" stroke="rgb(79,67,18)" stroke-width="1" opacity="0.34509803921568627" d="M 186.5 58 L 191 58.5 L 187.5 60 L 185 59.5 L 186.5 58 Z "></path><path fill="rgb(79,67,18)" stroke="rgb(79,67,18)" stroke-width="1" opacity="0.34509803921568627" d="M 195.5 58 L 203 58.5 L 195.5 59 L 195.5 58 Z "></path><path fill="rgb(79,67,18)" stroke="rgb(79,67,18)" stroke-width="1" opacity="0.34509803921568627" d="M 297.5 58 L 300 59 L 301 64 L 307 64.5 L 301.5 65 L 297.5 59 L 296 59.5 L 297.5 58 Z "></path><path fill="rgb(79,67,18)" stroke="rgb(79,67,18)" stroke-width="1" opacity="0.34509803921568627" d="M 264.5 59 L 263.5 61 L 264.5 59 Z "></path><path fill="rgb(79,67,18)" stroke="rgb(79,67,18)" stroke-width="1" opacity="0.34509803921568627" d="M 282 59 L 284 59.5 L 282 60.5 L 282 59 Z "></path><path fill="rgb(79,67,18)" stroke="rgb(79,67,18)" stroke-width="1" opacity="0.34509803921568627" d="M 285.5 59 L 290 59.5 L 285.5 60 L 285.5 59 Z "></path><path fill="rgb(79,67,18)" stroke="rgb(79,67,18)" stroke-width="1" opacity="0.34509803921568627" d="M 126.5 61 L 130.5 65 L 132.5 65 L 134 64.5 L 130.5 66 L 126.5 61 Z "></path><path fill="rgb(79,67,18)" stroke="rgb(79,67,18)" stroke-width="1" opacity="0.34509803921568627" d="M 235.5 61 L 241.5 64 Q 247.5 62.5 249 65.5 L 245.5 65 Q 237.2 65.3 235.5 61 Z "></path><path fill="rgb(79,67,18)" stroke="rgb(79,67,18)" stroke-width="1" opacity="0.34509803921568627" d="M 260.5 62 L 262 62.5 L 258.5 64 L 258.5 63 L 260.5 62 Z "></path><path fill="rgb(79,67,18)" stroke="rgb(79,67,18)" stroke-width="1" opacity="0.34509803921568627" d="M 268.5 62 L 269 64 L 280 64.5 L 269.5 65 L 268.5 62 Z "></path><path fill="rgb(79,67,18)" stroke="rgb(79,67,18)" stroke-width="1" opacity="0.34509803921568627" d="M 41.5 63 L 42.5 64 L 62 64.5 L 42.5 65 L 41.5 63 Z "></path><path fill="rgb(79,67,18)" stroke="rgb(79,67,18)" stroke-width="1" opacity="0.34509803921568627" d="M 74.5 64 L 84 64.5 L 74.5 65 L 74.5 64 Z "></path><path fill="rgb(79,67,18)" stroke="rgb(79,67,18)" stroke-width="1" opacity="0.34509803921568627" d="M 149.5 64 L 152 64.5 L 149.5 65 L 149.5 64 Z "></path><path fill="rgb(79,67,18)" stroke="rgb(79,67,18)" stroke-width="1" opacity="0.34509803921568627" d="M 157.5 64 L 160 64.5 L 157.5 65 L 157.5 64 Z "></path><path fill="rgb(79,67,18)" stroke="rgb(79,67,18)" stroke-width="1" opacity="0.34509803921568627" d="M 173.5 64 L 180 64.5 L 173.5 65 L 173.5 64 Z "></path><path fill="rgb(79,67,18)" stroke="rgb(79,67,18)" stroke-width="1" opacity="0.34509803921568627" d="M 206.5 64 L 216 64.5 L 206.5 65 L 206.5 64 Z "></path><path fill="rgb(79,67,18)" stroke="rgb(79,67,18)" stroke-width="1" opacity="0.34509803921568627" d="M 308.5 64 L 312 64.5 L 308.5 65 L 308.5 64 Z "></path></svg>
