<svg version="1.1" id="Layer_1" xmlns="http://www.w3.org/2000/svg" xmlns:xlink="http://www.w3.org/1999/xlink" x="0px" y="0px"
	 width="100%" viewBox="0 0 329 62" enable-background="new 0 0 329 62" xml:space="preserve">
<path fill="#070501" opacity="1.000000" stroke="none" 
	d="
M230.000000,63.000000 
	C153.333344,63.000000 77.166695,63.000000 1.000031,63.000000 
	C1.000021,42.333351 1.000021,21.666702 1.000010,1.000039 
	C110.666626,1.000026 220.333252,1.000026 329.999908,1.000013 
	C329.999939,21.666626 329.999939,42.333252 329.999969,62.999939 
	C296.833344,63.000000 263.666656,63.000000 230.000000,63.000000 
M191.864548,35.902817 
	C191.864548,35.902817 191.819656,35.788239 191.292862,36.201019 
	C191.036880,37.053967 190.780914,37.906918 190.660645,38.730309 
	C190.660645,38.730309 190.599289,38.605721 190.023254,38.994572 
	C189.286987,41.285286 188.550720,43.576000 187.942429,45.895763 
	C187.942429,45.895763 187.836243,45.818630 187.235214,46.217339 
	C185.862915,49.819073 184.490601,53.420803 182.597351,58.389797 
	C188.294205,56.982388 194.017761,61.472584 196.504257,53.756580 
	C196.741592,53.020073 198.703537,52.554806 199.899826,52.472580 
	C202.207657,52.313946 204.543518,52.620247 206.862244,52.550457 
	C210.654831,52.436317 214.598328,51.743015 215.928604,56.897144 
	C216.071472,57.450657 217.444031,57.978729 218.267151,58.012897 
	C221.398514,58.142864 224.538483,58.065292 228.536591,58.065292 
	C225.340820,50.539242 222.389694,43.589344 219.293304,36.815994 
	C219.293304,36.815994 219.480225,36.684326 219.410263,35.951946 
	C218.328278,33.569977 217.246277,31.188005 216.129593,28.891867 
	C216.129593,28.891867 216.219467,28.914091 216.183258,28.208685 
	C215.844513,27.612043 215.505768,27.015400 215.132141,25.760958 
	C214.404816,24.166727 213.677505,22.572496 213.017334,20.231367 
	C210.769135,14.747252 208.520950,9.263135 206.272751,3.779019 
	C205.830627,3.787275 205.388519,3.795531 204.946396,3.803786 
	C204.237320,5.513647 203.528259,7.223507 202.901672,8.907247 
	C202.901672,8.907247 202.866074,8.828378 202.329605,9.277763 
	C201.823792,10.816788 201.317978,12.355812 200.907913,13.904490 
	C200.907913,13.904490 200.844406,13.832181 200.308533,14.291285 
	C198.714645,18.416237 197.120758,22.541187 195.905212,27.022707 
	C195.783630,26.899693 195.662048,26.776676 195.093933,27.053104 
	C194.917969,27.622353 194.742004,28.191603 194.661118,28.757494 
	C194.661118,28.757494 194.625336,28.669344 194.113113,29.132196 
	C193.698517,30.434303 193.283936,31.736410 192.700211,33.150948 
	C192.700211,33.150948 192.786041,33.335018 192.223267,33.801449 
	C192.064133,34.512714 191.904984,35.223976 191.864548,35.902817 
M314.522705,57.746243 
	C314.522705,57.746243 314.575439,57.817574 315.223267,57.971195 
	C315.440430,57.925594 315.657623,57.879993 316.486481,57.987446 
	C317.321259,57.954174 318.156036,57.920902 319.605469,58.087749 
	C320.115692,57.822407 320.625946,57.557064 321.794647,57.160229 
	C325.241730,56.161411 323.521393,53.643749 322.897919,52.076805 
	C317.331360,38.086723 311.584930,24.167994 305.849121,10.245686 
	C304.946625,8.055075 303.831909,5.951886 302.303101,2.728173 
	C300.695648,6.105770 299.461334,8.381230 298.502106,10.767262 
	C292.902496,24.696211 287.367310,38.651070 281.208496,53.075066 
	C280.695984,54.430012 280.183472,55.784962 279.688080,57.094669 
	C284.538086,59.689362 290.566559,58.318115 293.064484,54.506397 
	C293.662079,53.594463 295.012238,52.655693 296.037140,52.631977 
	C301.009155,52.516930 305.988312,52.709106 310.917450,52.980068 
	C310.917450,52.980068 311.097412,53.051239 311.141937,53.753460 
	C311.678864,54.788494 312.215790,55.823528 312.872467,57.133831 
	C312.872467,57.133831 313.162354,57.055843 313.468536,57.382305 
	C313.846680,57.507965 314.224854,57.633621 314.522705,57.746243 
M113.152878,11.821808 
	C113.152878,11.821808 113.252174,11.810251 113.079651,11.170168 
	C111.772293,9.715858 110.464935,8.261549 109.093102,6.912323 
	C109.093102,6.912323 109.199738,6.850438 109.040558,6.234615 
	C108.414062,5.681426 107.787575,5.128236 106.533340,4.096883 
	C105.643593,5.098973 104.085228,6.040143 103.987350,7.114383 
	C103.672401,10.571160 103.908714,14.077024 103.910133,17.563967 
	C103.915581,30.961412 103.912338,44.358860 103.912338,57.800423 
	C107.858215,57.800423 111.217033,57.800423 115.326385,57.800423 
	C114.898445,51.581825 114.497200,45.751221 114.078217,39.104504 
	C114.693924,36.221771 115.309631,33.339043 116.048027,30.934744 
	C116.048027,30.934744 116.415558,31.263920 116.415558,31.263920 
	C116.415558,31.263920 116.890358,31.128906 117.185997,31.505682 
	C117.459373,31.671394 117.721039,31.853889 117.944725,32.746407 
	C122.569817,37.888092 127.194901,43.029778 131.963455,48.664402 
	C132.248810,48.836979 132.534180,49.009556 132.906158,49.870571 
	C136.409729,52.578953 139.913300,55.287331 143.776321,58.068268 
	C143.815552,58.008579 143.854782,57.948895 143.894012,57.889202 
	C143.735794,57.925461 143.577576,57.961716 143.512344,57.288147 
	C143.759949,56.891384 144.007553,56.494621 144.633255,55.398090 
	C144.734985,45.093296 144.937119,34.788147 144.900787,24.483841 
	C144.879013,18.309307 144.484467,12.136088 143.723755,5.413418 
	C140.384918,5.413418 137.046097,5.413418 132.936951,5.413418 
	C132.936951,14.562202 132.936951,23.709446 132.256622,32.854340 
	C130.015091,31.087372 127.528305,29.550358 125.597893,27.491655 
	C123.477127,25.229956 121.868698,22.487846 120.096672,19.268560 
	C118.122124,17.105499 116.147568,14.942438 114.153076,12.873288 
	C114.153076,12.873288 114.248985,12.877528 114.133232,12.301254 
	C113.808823,12.108200 113.484406,11.915147 113.152878,11.821808 
M253.356110,57.328526 
	C253.356110,57.328526 253.766418,57.286865 254.319717,57.868736 
	C256.267303,58.146168 258.210388,58.461533 260.163269,58.694328 
	C267.779755,59.602264 274.342010,56.088177 278.054504,48.928303 
	C280.689636,40.449062 278.820465,34.690746 271.960144,30.281408 
	C271.750305,29.999918 271.471497,29.883284 270.730103,29.348289 
	C267.112671,27.712111 263.495209,26.075932 259.814575,24.175589 
	C259.814575,24.175589 259.546570,24.131527 259.259613,23.511726 
	C257.126251,18.210627 259.699768,14.649773 265.411926,15.295385 
	C268.161896,15.606198 270.847687,16.484518 274.231659,17.258989 
	C274.596893,13.745872 274.931030,10.531775 275.370361,6.306008 
	C270.235779,5.766812 265.503571,4.698343 260.832031,4.918294 
	C254.427826,5.219823 250.092209,9.253352 247.915802,15.124904 
	C245.789246,20.861942 246.320618,26.749348 251.308105,30.634878 
	C255.341797,33.777344 260.398438,35.606758 265.104553,38.278755 
	C265.104553,38.278755 265.380402,38.231350 265.783112,38.873882 
	C268.632172,45.162376 266.644623,48.170841 259.945648,47.524269 
	C257.666840,47.304321 255.426590,46.685150 252.642471,45.847652 
	C251.055557,45.200138 249.468658,44.552624 247.379913,43.700348 
	C247.028229,47.782406 246.735809,51.176613 246.412766,54.926308 
	C248.707504,55.695419 250.850677,56.413731 253.356110,57.328526 
M31.145617,37.304382 
	C35.351372,37.304382 39.557129,37.304382 43.967422,37.304382 
	C43.967422,35.192413 43.928535,33.898163 43.973991,32.606884 
	C44.199245,26.207808 44.206963,26.216053 37.939178,26.110304 
	C35.971115,26.077099 34.003983,25.988451 32.293419,25.302555 
	C31.647070,17.905401 31.647266,17.911213 39.251595,17.654310 
	C39.501045,17.645882 39.737656,17.257423 40.737999,17.100166 
	C41.494717,17.069706 42.251434,17.039246 43.328255,17.458019 
	C44.182999,16.963470 45.037743,16.468922 46.016155,15.339862 
	C46.072861,14.914046 46.129566,14.488231 46.915863,13.870167 
	C48.565262,10.750474 48.583771,7.811823 45.178440,4.918677 
	C43.164410,4.939019 41.150402,4.974608 39.136349,4.976901 
	C32.568108,4.984378 25.999857,4.979702 19.295198,4.979702 
	C19.295198,10.139727 19.295198,14.570638 19.066710,19.888502 
	C19.144913,22.949045 19.223116,26.009588 19.042545,29.696730 
	C19.172049,30.121784 19.301554,30.546841 19.180305,31.884510 
	C19.227800,37.606823 19.275295,43.329136 19.129852,49.500771 
	C19.129852,49.500771 19.369047,49.927261 19.239658,50.634197 
	C19.268299,51.108593 19.296940,51.582993 19.084564,52.495419 
	C19.084564,52.495419 19.314077,52.939583 19.129408,53.770782 
	C19.184954,54.884815 19.240499,55.998848 19.105488,57.504543 
	C19.105488,57.504543 19.437784,57.784100 19.437784,57.784100 
	C19.437784,57.784100 19.872047,57.779007 20.765301,58.139866 
	C28.477032,58.118629 36.190228,58.160103 43.898243,57.979874 
	C44.675335,57.961700 45.421089,56.603237 46.181862,55.289188 
	C46.163105,54.904610 46.144348,54.520027 46.722900,53.731632 
	C46.600357,51.627903 46.477814,49.524174 46.356491,47.441368 
	C29.848053,46.035603 29.848053,46.035603 31.145617,37.304382 
M63.914944,46.914696 
	C63.914944,46.914696 63.636543,46.938229 63.652039,46.165451 
	C63.652039,32.635227 63.652039,19.105007 63.652039,4.698699 
	C59.636021,5.159226 56.164051,5.557366 51.938339,6.169755 
	C51.653194,7.230875 51.104584,8.296620 51.123119,9.352408 
	C51.339424,21.673389 51.596363,33.994160 51.950409,46.311882 
	C52.043510,49.551033 52.507061,52.779537 52.927849,56.894936 
	C54.188480,57.276615 55.441219,57.955265 56.711094,57.988991 
	C62.459980,58.141674 68.213707,58.112175 74.378571,58.627869 
	C75.936340,58.519344 77.494118,58.410816 79.669533,58.144600 
	C79.913147,57.809116 80.156761,57.473633 80.885139,57.171364 
	C82.122887,53.648537 83.700226,50.086319 78.825592,47.155876 
	C73.883270,47.164337 68.940941,47.172802 63.914944,46.914696 
M177.160034,53.223488 
	C184.487961,47.904266 184.319687,36.903122 176.501984,31.210384 
	C173.191177,28.799505 169.270157,27.199154 165.550705,25.385889 
	C162.748077,24.019577 160.169006,21.973877 161.922409,18.984446 
	C163.021042,17.111355 166.231323,15.747005 168.611603,15.546093 
	C171.387283,15.311810 174.291031,16.594990 177.428848,17.283255 
	C177.898087,13.557202 178.302155,10.348538 178.800781,6.388974 
	C174.143936,5.825009 169.933792,4.930480 165.715179,4.888646 
	C158.185516,4.813978 152.747711,9.394147 150.988083,16.631081 
	C149.181305,24.061916 151.858887,30.156187 158.669800,33.775318 
	C161.162735,35.099998 163.836838,36.079819 166.362976,37.347126 
	C168.832489,38.586025 171.947998,39.547501 171.037521,43.324715 
	C170.107300,47.183949 166.849716,48.048183 163.653137,47.605080 
	C159.468430,47.024994 155.393097,45.655861 151.250504,44.621094 
	C148.441681,54.030361 150.024063,56.630440 159.714294,58.091301 
	C161.027924,58.289345 162.388184,58.836994 163.642487,58.651691 
	C168.277145,57.967014 173.742661,59.158184 176.415268,53.431232 
	C176.415268,53.431232 176.484024,53.397167 177.160034,53.223488 
M95.618729,5.321620 
	C92.168541,5.321620 88.718361,5.321620 85.007889,5.321620 
	C85.007889,14.266978 85.007881,22.861629 85.007881,31.456282 
	C85.007881,40.188408 85.007889,48.920532 85.007889,57.713531 
	C89.073280,57.713531 92.441078,57.713531 96.051498,57.713531 
	C96.051498,40.242504 96.051498,23.170753 95.618729,5.321620 
z"/>
<path fill="#F6DB5F" opacity="1.000000" stroke="none" 
	d="
M212.950180,20.978268 
	C213.677505,22.572496 214.404816,24.166727 215.141174,26.451326 
	C215.506622,27.732494 215.863037,28.323296 216.219467,28.914093 
	C216.219467,28.914091 216.129593,28.891867 216.095581,29.247269 
	C217.201126,31.963224 218.340668,34.323776 219.480225,36.684326 
	C219.480225,36.684326 219.293304,36.815994 219.262543,37.126945 
	C220.775238,41.950951 222.530609,46.407722 223.751968,51.006325 
	C224.204697,52.710884 223.403900,54.748371 223.174759,56.634026 
	C221.039337,55.931973 218.782440,55.465027 216.810623,54.446304 
	C215.466339,53.751793 214.410965,51.231148 213.414200,51.334690 
	C206.471375,52.055847 198.467133,47.579269 192.791946,55.446117 
	C192.020432,56.515556 189.269547,56.157066 187.435150,56.459740 
	C187.205994,54.827763 186.731964,53.183826 186.810959,51.566910 
	C186.905182,49.638721 187.473373,47.733692 187.836243,45.818630 
	C187.836243,45.818630 187.942429,45.895763 188.240173,45.814987 
	C189.225037,43.358051 189.912155,40.981884 190.599289,38.605721 
	C190.599289,38.605721 190.660645,38.730309 190.911163,38.582939 
	C191.381012,37.553127 191.600327,36.670681 191.819641,35.788239 
	C191.819656,35.788239 191.864548,35.902817 192.088272,35.677814 
	C192.470016,34.746880 192.628021,34.040947 192.786041,33.335014 
	C192.786041,33.335018 192.700211,33.150948 193.145660,32.973274 
	C193.935867,31.420183 194.280609,30.044764 194.625336,28.669346 
	C194.625336,28.669344 194.661118,28.757494 194.903809,28.607418 
	C195.277817,27.856113 195.409134,27.254889 195.540466,26.653662 
	C195.662048,26.776676 195.783630,26.899693 196.051147,26.741096 
	C197.746185,22.250383 199.295288,18.041283 200.844406,13.832181 
	C200.844406,13.832181 200.907913,13.904490 201.192719,13.743588 
	C201.940369,11.997918 202.403214,10.413148 202.866074,8.828378 
	C202.866074,8.828378 202.901672,8.907247 203.199310,8.806542 
	C206.248840,7.319662 206.795013,9.371136 207.711868,11.230572 
	C209.342163,14.536906 211.192108,17.734934 212.950180,20.978268 
M206.910690,30.379784 
	C206.100784,29.968548 205.290878,29.557314 204.480972,29.146080 
	C203.363495,33.124222 202.246002,37.102360 201.132996,41.674133 
	C201.433090,41.918896 201.733200,42.163658 202.702026,42.800095 
	C204.488403,42.870979 206.363251,43.296486 208.028336,42.881184 
	C209.044785,42.627666 210.629044,40.777195 210.421356,40.167896 
	C209.577194,37.691444 208.138855,35.417534 206.999268,33.000183 
	C206.999268,33.000183 206.914780,33.063545 206.996353,32.372410 
	C206.998840,31.907885 207.001328,31.443359 206.910690,30.379784 
z"/>
<path fill="#EDD569" opacity="1.000000" stroke="none" 
	d="
M176.379562,53.499153 
	C173.742661,59.158184 168.277145,57.967014 163.642487,58.651691 
	C162.388184,58.836994 161.027924,58.289345 159.714294,58.091301 
	C150.024063,56.630440 148.441681,54.030361 151.250504,44.621094 
	C155.393097,45.655861 159.468430,47.024994 163.653137,47.605080 
	C166.849716,48.048183 170.107300,47.183949 171.037521,43.324715 
	C171.947998,39.547501 168.832489,38.586025 166.362976,37.347126 
	C163.836838,36.079819 161.162735,35.099998 158.669800,33.775318 
	C151.858887,30.156187 149.181305,24.061916 150.988083,16.631081 
	C152.747711,9.394147 158.185516,4.813978 165.715179,4.888646 
	C169.933792,4.930480 174.143936,5.825009 178.800781,6.388974 
	C178.302155,10.348538 177.898087,13.557202 177.428848,17.283255 
	C174.291031,16.594990 171.387283,15.311810 168.611603,15.546093 
	C166.231323,15.747005 163.021042,17.111355 161.922409,18.984446 
	C160.169006,21.973877 162.748077,24.019577 165.550705,25.385889 
	C169.270157,27.199154 173.191177,28.799505 176.501984,31.210384 
	C184.319687,36.903122 184.487961,47.904266 176.748932,52.957855 
	C176.555817,51.793289 176.773804,50.894363 177.179749,49.688332 
	C178.233627,46.943779 179.588303,44.540081 179.759964,42.054680 
	C179.846222,40.805885 177.781540,39.408527 176.689575,38.078362 
	C175.895142,39.497009 174.847153,40.837612 174.379517,42.356846 
	C173.936356,43.796650 174.101517,45.423698 173.637939,47.046268 
	C168.094925,51.400269 162.347626,50.421017 156.507568,49.017963 
	C155.370926,48.744888 153.925903,48.627739 152.985352,49.124489 
	C152.487991,49.387173 152.322723,51.460594 152.811966,52.116604 
	C153.454269,52.977856 154.843307,53.438400 155.996887,53.718987 
	C157.191635,54.009586 158.929718,53.374180 159.666779,54.017879 
	C163.328354,57.215633 166.834885,56.179722 170.665863,54.453869 
	C172.368286,53.686928 174.462936,53.790634 176.379562,53.499153 
M169.809662,35.762650 
	C171.301498,36.115295 172.793350,36.467941 174.486008,36.868061 
	C174.982529,32.173302 172.166077,31.315685 169.280777,30.210020 
	C166.815186,29.265186 164.644318,27.548914 162.176590,26.612755 
	C160.088684,25.820677 157.762283,25.657249 155.541412,25.215607 
	C155.392761,25.736361 155.244110,26.257114 155.095459,26.777868 
	C156.381363,28.001682 157.491364,29.535212 158.989197,30.385864 
	C162.266068,32.246891 165.739792,33.761322 169.809662,35.762650 
z"/>
<path fill="#FADD5B" opacity="1.000000" stroke="none" 
	d="
M321.136169,57.291725 
	C320.625946,57.557064 320.115692,57.822407 319.185242,57.677834 
	C317.801636,57.456741 316.838257,57.645565 315.874847,57.834393 
	C315.657623,57.879993 315.440430,57.925594 314.945862,57.524315 
	C314.130890,56.374779 313.593292,55.672115 312.975464,54.678902 
	C312.295929,53.942646 311.696655,53.496944 311.097412,53.051243 
	C311.097412,53.051239 310.917450,52.980068 310.877869,52.550491 
	C309.637482,51.557884 308.444244,50.538437 307.234528,50.518520 
	C303.787567,50.461773 300.335602,50.914101 296.882385,50.970600 
	C294.015686,51.017502 291.476898,50.785164 290.277374,54.543285 
	C289.879913,55.788441 286.794586,56.175659 284.733917,56.754173 
	C283.987366,56.389465 283.445038,56.225708 282.899658,55.793129 
	C282.895844,55.345081 282.895111,55.165859 282.977234,54.631062 
	C287.787354,42.198048 292.405304,30.075804 297.321747,18.075838 
	C298.497192,15.206726 300.667267,12.745118 302.931854,9.242377 
	C304.256622,11.848120 305.116028,13.239032 305.700073,14.737288 
	C308.861694,22.847879 312.054382,30.948807 315.039124,39.125080 
	C317.228699,45.123230 319.114807,51.232170 321.136169,57.291725 
M300.444244,32.934528 
	C299.692078,35.207848 298.916840,37.473854 298.193939,39.756439 
	C297.385529,42.308983 298.352600,43.396137 301.534760,43.466248 
	C303.898193,43.762924 308.079041,46.332008 308.057220,42.725292 
	C308.029053,38.066963 305.245514,33.396511 303.379822,28.841324 
	C303.252228,28.529806 300.881744,29.136934 299.554352,29.316833 
	C299.875061,30.259882 300.195740,31.202930 300.444244,32.934528 
z"/>
<path fill="#F9DC5D" opacity="1.000000" stroke="none" 
	d="
M120.037033,19.955057 
	C121.868698,22.487846 123.477127,25.229956 125.597893,27.491655 
	C127.528305,29.550358 130.015091,31.087372 132.792725,33.089554 
	C133.884476,33.550800 134.440094,33.776829 134.993683,34.338524 
	C134.023209,35.744766 133.054779,36.815338 132.086349,37.885906 
	C131.875946,37.702019 131.665558,37.518131 131.455154,37.334244 
	C130.973297,39.238609 130.491440,41.142975 129.766449,43.091328 
	C127.662842,40.438744 125.802361,37.742168 124.244537,34.902119 
	C125.599998,34.140133 126.652817,33.521622 127.705635,32.903111 
	C127.562912,32.619396 127.420197,32.335686 127.277473,32.051971 
	C125.485893,32.051971 123.694313,32.051971 121.636337,31.944494 
	C120.236961,31.909069 119.103981,31.981119 117.971008,32.053169 
	C117.721039,31.853889 117.459373,31.671394 117.037857,31.106548 
	C116.568253,30.623713 116.246796,30.540012 115.925339,30.456312 
	C115.309631,33.339043 114.693924,36.221771 113.982117,39.920292 
	C113.582123,44.850765 113.551796,49.014465 112.828056,53.053925 
	C112.569778,54.495453 110.631989,55.636063 109.460815,56.914028 
	C108.304604,55.613304 106.849060,54.463085 106.093712,52.960808 
	C105.558723,51.896786 105.981285,50.356541 105.957932,49.029202 
	C105.729218,36.024342 105.445999,23.019953 105.342987,10.014125 
	C105.332619,8.705343 106.406128,7.387975 107.205673,6.278005 
	C108.023048,6.604424 108.611397,6.727431 109.199738,6.850438 
	C109.199738,6.850438 109.093102,6.912323 109.093285,7.237031 
	C110.479698,8.977911 111.865936,10.394082 113.252174,11.810252 
	C113.252174,11.810251 113.152878,11.821808 113.256714,12.032127 
	C113.656693,12.454143 113.952835,12.665836 114.248985,12.877529 
	C114.248985,12.877528 114.153076,12.873288 114.123215,13.201162 
	C116.074570,15.671044 118.055801,17.813053 120.037033,19.955057 
z"/>
<path fill="#F4D95F" opacity="1.000000" stroke="none" 
	d="
M46.125587,54.135448 
	C46.144348,54.520027 46.163105,54.904610 45.787018,55.748631 
	C38.318043,56.438358 31.238356,56.874172 24.175591,56.683453 
	C23.081432,56.653900 21.274553,53.812187 21.156881,52.173325 
	C20.766941,46.742531 21.115292,41.262939 20.920395,35.811363 
	C20.862164,34.182541 19.951284,32.584202 19.431057,30.971895 
	C19.301554,30.546841 19.172049,30.121784 19.494255,29.213139 
	C20.316792,26.791887 20.687614,24.854227 21.259293,22.683674 
	C21.319782,21.325941 21.179419,20.201099 21.018705,19.045691 
	C20.998354,19.015125 20.956715,18.954628 20.966549,18.588390 
	C21.310118,16.819733 21.643850,15.417316 22.262732,14.171280 
	C24.752783,17.733160 27.422060,15.774021 30.050053,15.267691 
	C30.155416,15.758979 30.201904,15.954545 30.216776,16.129110 
	C30.185162,16.108109 30.260433,16.103733 29.957424,16.296473 
	C26.985771,19.371695 28.376858,22.181841 29.863920,25.254234 
	C29.944622,25.695221 29.967314,25.873280 30.016338,26.417389 
	C31.435656,30.865047 34.264656,27.382669 36.356873,27.928194 
	C38.538689,28.497080 41.610275,26.960089 41.995663,30.981672 
	C42.389622,35.092716 39.661030,34.840206 36.899063,35.159576 
	C34.244198,35.466564 31.657471,36.362843 29.032581,37.439865 
	C28.970518,39.692970 29.293528,41.619465 28.789906,43.297928 
	C27.450472,47.761974 29.610880,48.987286 33.469326,48.994003 
	C34.954666,48.996590 36.463112,49.175575 37.920967,48.978241 
	C42.148994,48.405960 45.272697,49.418163 46.125587,54.135448 
z"/>
<path fill="#FADE5D" opacity="1.000000" stroke="none" 
	d="
M271.123749,29.931507 
	C271.471497,29.883284 271.750305,29.999918 272.032349,30.867472 
	C273.717072,33.972004 275.329620,36.490471 276.590210,38.983246 
	C274.807159,38.397766 273.376038,37.837982 271.959259,37.283794 
	C271.214294,39.057003 270.595184,40.530643 269.900574,41.650303 
	C268.343506,40.274666 266.861969,39.253006 265.380402,38.231350 
	C265.380402,38.231350 265.104553,38.278755 264.994995,37.796303 
	C261.834412,35.497532 258.683624,33.827854 255.752869,31.834641 
	C249.477844,27.567017 247.174225,19.993618 250.299835,14.517331 
	C253.830322,8.331620 264.311340,4.613124 270.222015,7.816646 
	C271.549805,8.536319 271.991730,10.890467 272.841492,12.492168 
	C271.417053,13.122190 270.030762,14.131456 268.557892,14.279453 
	C266.969543,14.439052 265.041412,13.128662 263.722687,13.642661 
	C261.339630,14.571500 258.522308,15.942136 257.379700,17.969807 
	C256.570312,19.406168 255.118378,23.421635 259.546570,24.131527 
	C259.546570,24.131527 259.814575,24.175589 259.730469,24.651012 
	C263.472137,26.728127 267.297943,28.329817 271.123749,29.931507 
z"/>
<path fill="#E7D26B" opacity="1.000000" stroke="none" 
	d="
M321.465393,57.225983 
	C319.114807,51.232170 317.228699,45.123230 315.039124,39.125080 
	C312.054382,30.948807 308.861694,22.847879 305.700073,14.737288 
	C305.116028,13.239032 304.256622,11.848120 302.931854,9.242377 
	C300.667267,12.745118 298.497192,15.206726 297.321747,18.075838 
	C292.405304,30.075804 287.787354,42.198048 282.768799,54.373322 
	C282.255188,53.846497 282.032776,53.221836 281.810364,52.597179 
	C287.367310,38.651070 292.902496,24.696211 298.502106,10.767262 
	C299.461334,8.381230 300.695648,6.105770 302.303101,2.728173 
	C303.831909,5.951886 304.946625,8.055075 305.849121,10.245686 
	C311.584930,24.167994 317.331360,38.086723 322.897919,52.076805 
	C323.521393,53.643749 325.241730,56.161411 321.465393,57.225983 
z"/>
<path fill="#E4D075" opacity="1.000000" stroke="none" 
	d="
M95.835114,5.710311 
	C96.051498,23.170753 96.051498,40.242504 96.051498,57.713531 
	C92.441078,57.713531 89.073280,57.713531 85.007889,57.713531 
	C85.007889,48.920532 85.007881,40.188408 85.007881,31.456282 
	C85.007881,22.861629 85.007889,14.266978 85.007889,5.321620 
	C88.718361,5.321620 92.168541,5.321620 95.835114,5.710311 
M92.997719,55.491459 
	C93.344589,54.087280 93.984718,52.684750 93.992638,51.278660 
	C94.065720,38.309441 94.034782,25.339598 94.020584,12.369950 
	C94.017776,9.809360 94.132683,7.012774 90.423264,7.098115 
	C86.715500,7.183419 87.006630,10.059711 87.002876,12.559889 
	C86.983627,25.389982 87.098801,38.221405 86.938156,51.049492 
	C86.888443,55.019073 88.217667,56.697834 92.997719,55.491459 
z"/>
<path fill="#DECB77" opacity="1.000000" stroke="none" 
	d="
M80.400368,57.138153 
	C80.156761,57.473633 79.913147,57.809116 78.951614,58.097813 
	C76.811020,58.083443 75.388359,58.115860 73.965691,58.148273 
	C68.213707,58.112175 62.459980,58.141674 56.711094,57.988991 
	C55.441219,57.955265 54.188480,57.276615 52.912079,55.988190 
	C52.828232,38.706135 52.760159,22.330818 52.692081,5.955505 
	C56.164051,5.557366 59.636021,5.159226 63.652039,4.698699 
	C63.652039,19.105007 63.652039,32.635227 63.416912,46.272530 
	C62.797550,44.118000 62.113998,41.860664 62.081596,39.594028 
	C61.950832,30.445042 61.986843,21.293001 62.036045,12.142489 
	C62.052334,9.113325 61.481354,6.892572 57.715782,6.965981 
	C53.841476,7.041511 54.246937,9.971205 54.105167,12.291672 
	C53.945309,14.908295 54.388287,17.555439 54.382683,20.188913 
	C54.361240,30.263161 54.131073,40.339169 54.275394,50.410271 
	C54.320618,53.566029 55.046482,56.932766 59.457405,56.952534 
	C64.780769,56.976383 70.129471,57.237339 75.409889,56.760670 
	C76.707481,56.643536 78.549042,54.180775 78.797646,52.586914 
	C79.289444,49.433914 76.704651,49.173740 74.177078,48.915699 
	C70.760841,48.566933 67.389320,47.780125 63.998615,47.181263 
	C68.940941,47.172802 73.883270,47.164337 79.364128,47.603065 
	C80.068565,51.079552 80.234467,54.108852 80.400368,57.138153 
z"/>
<path fill="#EFD975" opacity="1.000000" stroke="none" 
	d="
M134.995728,34.002857 
	C134.440094,33.776829 133.884476,33.550800 133.132904,33.090729 
	C132.936951,23.709446 132.936951,14.562202 132.936951,5.413418 
	C137.046097,5.413418 140.384918,5.413418 143.906494,6.151009 
	C144.144531,23.291687 144.199844,39.694775 144.255157,56.097862 
	C144.007553,56.494621 143.759949,56.891384 143.511215,57.656563 
	C143.510086,58.024979 143.416870,57.995708 143.416870,57.995708 
	C139.913300,55.287331 136.409729,52.578953 132.925812,49.460167 
	C132.945480,49.049759 133.064255,48.910896 133.400772,48.993065 
	C136.532547,50.898216 139.327805,52.721199 142.490112,54.783562 
	C142.490112,45.025932 142.544250,36.141960 142.470398,27.259052 
	C142.423904,21.667812 142.300735,16.070690 141.938278,10.493996 
	C141.864090,9.352559 140.570511,8.290379 139.839005,7.191665 
	C138.545715,8.055729 136.516479,8.674213 136.127457,9.840023 
	C135.506363,11.701333 135.975464,13.926434 135.855011,16.234041 
	C135.509750,21.645403 135.293137,26.820442 135.060730,32.329929 
	C135.028519,33.110535 135.012131,33.556698 134.995728,34.002857 
z"/>
<path fill="#E0CE76" opacity="1.000000" stroke="none" 
	d="
M259.403076,23.821627 
	C255.118378,23.421635 256.570312,19.406168 257.379700,17.969807 
	C258.522308,15.942136 261.339630,14.571500 263.722687,13.642661 
	C265.041412,13.128662 266.969543,14.439052 268.557892,14.279453 
	C270.030762,14.131456 271.417053,13.122190 272.841492,12.492168 
	C271.991730,10.890467 271.549805,8.536319 270.222015,7.816646 
	C264.311340,4.613124 253.830322,8.331620 250.299835,14.517331 
	C247.174225,19.993618 249.477844,27.567017 255.752869,31.834641 
	C258.683624,33.827854 261.834412,35.497532 264.943390,37.666233 
	C260.398438,35.606758 255.341797,33.777344 251.308105,30.634878 
	C246.320618,26.749348 245.789246,20.861942 247.915802,15.124904 
	C250.092209,9.253352 254.427826,5.219823 260.832031,4.918294 
	C265.503571,4.698343 270.235779,5.766812 275.370361,6.306008 
	C274.931030,10.531775 274.596893,13.745872 274.231659,17.258989 
	C270.847687,16.484518 268.161896,15.606198 265.411926,15.295385 
	C259.699768,14.649773 257.126251,18.210627 259.403076,23.821627 
z"/>
<path fill="#E6CF69" opacity="1.000000" stroke="none" 
	d="
M30.248390,16.150112 
	C30.201904,15.954545 30.155416,15.758979 30.420818,15.113630 
	C33.667461,14.214792 36.656887,13.972193 39.510429,13.216494 
	C40.674866,12.908119 41.544796,11.487677 42.548714,10.573177 
	C41.495201,9.669557 40.496082,8.076483 39.378235,7.988293 
	C35.643673,7.693666 31.840590,8.231773 28.112352,7.901804 
	C23.343702,7.479753 21.204744,9.144760 21.977581,14.014898 
	C21.643850,15.417316 21.310118,16.819733 20.690393,18.605648 
	C20.034668,18.993279 19.664932,18.997414 19.295198,19.001549 
	C19.295198,14.570638 19.295198,10.139727 19.295198,4.979702 
	C25.999857,4.979702 32.568108,4.984378 39.136349,4.976901 
	C41.150402,4.974608 43.164410,4.939019 45.526924,5.414720 
	C45.979031,8.627980 46.082649,11.345199 46.186272,14.062416 
	C46.129566,14.488231 46.072861,14.914046 45.612640,15.620234 
	C44.475464,16.269997 43.741810,16.639389 43.008152,17.008783 
	C42.251434,17.039246 41.494717,17.069706 40.170803,16.698090 
	C36.485203,16.247377 33.366795,16.198744 30.248390,16.150112 
z"/>
<path fill="#E1CD79" opacity="1.000000" stroke="none" 
	d="
M106.976631,6.074592 
	C106.406128,7.387975 105.332619,8.705343 105.342987,10.014125 
	C105.445999,23.019953 105.729218,36.024342 105.957932,49.029202 
	C105.981285,50.356541 105.558723,51.896786 106.093712,52.960808 
	C106.849060,54.463085 108.304604,55.613304 109.460815,56.914028 
	C110.631989,55.636063 112.569778,54.495453 112.828056,53.053925 
	C113.551796,49.014465 113.582123,44.850765 113.990990,40.328350 
	C114.497200,45.751221 114.898445,51.581825 115.326385,57.800423 
	C111.217033,57.800423 107.858215,57.800423 103.912338,57.800423 
	C103.912338,44.358860 103.915581,30.961412 103.910133,17.563967 
	C103.908714,14.077024 103.672401,10.571160 103.987350,7.114383 
	C104.085228,6.040143 105.643593,5.098973 106.798569,4.710546 
	C107.034744,5.574335 107.005692,5.824463 106.976631,6.074592 
z"/>
<path fill="#DECD7A" opacity="1.000000" stroke="none" 
	d="
M187.535721,46.017982 
	C187.473373,47.733692 186.905182,49.638721 186.810959,51.566910 
	C186.731964,53.183826 187.205994,54.827763 187.435150,56.459740 
	C189.269547,56.157066 192.020432,56.515556 192.791946,55.446117 
	C198.467133,47.579269 206.471375,52.055847 213.414200,51.334690 
	C214.410965,51.231148 215.466339,53.751793 216.810623,54.446304 
	C218.782440,55.465027 221.039337,55.931973 223.174759,56.634026 
	C223.403900,54.748371 224.204697,52.710884 223.751968,51.006325 
	C222.530609,46.407722 220.775238,41.950951 219.335175,37.038666 
	C222.389694,43.589344 225.340820,50.539242 228.536591,58.065292 
	C224.538483,58.065292 221.398514,58.142864 218.267151,58.012897 
	C217.444031,57.978729 216.071472,57.450657 215.928604,56.897144 
	C214.598328,51.743015 210.654831,52.436317 206.862244,52.550457 
	C204.543518,52.620247 202.207657,52.313946 199.899826,52.472580 
	C198.703537,52.554806 196.741592,53.020073 196.504257,53.756580 
	C194.017761,61.472584 188.294205,56.982388 182.597351,58.389797 
	C184.490601,53.420803 185.862915,49.819073 187.535721,46.017982 
z"/>
<path fill="#EBD481" opacity="1.000000" stroke="none" 
	d="
M19.305681,31.428204 
	C19.951284,32.584202 20.862164,34.182541 20.920395,35.811363 
	C21.115292,41.262939 20.766941,46.742531 21.156881,52.173325 
	C21.274553,53.812187 23.081432,56.653900 24.175591,56.683453 
	C31.238356,56.874172 38.318043,56.438358 45.786781,56.037422 
	C45.421089,56.603237 44.675335,57.961700 43.898243,57.979874 
	C36.190228,58.160103 28.477032,58.118629 20.262234,57.818466 
	C19.652988,57.310955 19.498615,57.182892 19.296045,57.112881 
	C19.240499,55.998848 19.184954,54.884815 19.321474,53.264351 
	C19.636179,52.478809 19.573524,52.245300 19.325581,52.057388 
	C19.296940,51.582993 19.268299,51.108593 19.394775,50.184177 
	C19.646404,49.452797 19.570704,49.225227 19.322790,49.051449 
	C19.275295,43.329136 19.227800,37.606823 19.305681,31.428204 
z"/>
<path fill="#E6CF69" opacity="1.000000" stroke="none" 
	d="
M29.040804,37.000183 
	C31.657471,36.362843 34.244198,35.466564 36.899063,35.159576 
	C39.661030,34.840206 42.389622,35.092716 41.995663,30.981672 
	C41.610275,26.960089 38.538689,28.497080 36.356873,27.928194 
	C34.264656,27.382669 31.435656,30.865047 30.358040,26.492691 
	C31.127748,26.109686 31.582087,26.017431 32.036427,25.925179 
	C34.003983,25.988451 35.971115,26.077099 37.939178,26.110304 
	C44.206963,26.216053 44.199245,26.207808 43.973991,32.606884 
	C43.928535,33.898163 43.967422,35.192413 43.967422,37.304382 
	C39.557129,37.304382 35.351372,37.304382 30.395298,37.205170 
	C29.443588,37.070694 29.242195,37.035435 29.040804,37.000183 
z"/>
<path fill="#DFCD77" opacity="1.000000" stroke="none" 
	d="
M281.509430,52.836121 
	C282.032776,53.221836 282.255188,53.846497 282.686005,54.728897 
	C282.895111,55.165859 282.895844,55.345081 282.879150,55.999039 
	C283.553864,56.634224 284.246033,56.794674 284.938171,56.955128 
	C286.794586,56.175659 289.879913,55.788441 290.277374,54.543285 
	C291.476898,50.785164 294.015686,51.017502 296.882385,50.970600 
	C300.335602,50.914101 303.787567,50.461773 307.234528,50.518520 
	C308.444244,50.538437 309.637482,51.557884 310.901611,52.456688 
	C305.988312,52.709106 301.009155,52.516930 296.037140,52.631977 
	C295.012238,52.655693 293.662079,53.594463 293.064484,54.506397 
	C290.566559,58.318115 284.538086,59.689362 279.688080,57.094669 
	C280.183472,55.784962 280.695984,54.430012 281.509430,52.836121 
z"/>
<path fill="#4C3D10" opacity="1.000000" stroke="none" 
	d="
M52.315208,6.062630 
	C52.760159,22.330818 52.828232,38.706135 52.848396,55.547188 
	C52.507061,52.779537 52.043510,49.551033 51.950409,46.311882 
	C51.596363,33.994160 51.339424,21.673389 51.123119,9.352408 
	C51.104584,8.296620 51.653194,7.230875 52.315208,6.062630 
z"/>
<path fill="#EBD481" opacity="1.000000" stroke="none" 
	d="
M29.032581,37.439865 
	C29.242195,37.035435 29.443588,37.070694 29.945490,37.160458 
	C29.848053,46.035603 29.848053,46.035603 46.356491,47.441368 
	C46.477814,49.524174 46.600357,51.627903 46.424244,53.933540 
	C45.272697,49.418163 42.148994,48.405960 37.920967,48.978241 
	C36.463112,49.175575 34.954666,48.996590 33.469326,48.994003 
	C29.610880,48.987286 27.450472,47.761974 28.789906,43.297928 
	C29.293528,41.619465 28.970518,39.692970 29.032581,37.439865 
z"/>
<path fill="#5C501D" opacity="1.000000" stroke="none" 
	d="
M144.444214,55.747978 
	C144.199844,39.694775 144.144531,23.291687 144.173340,6.425440 
	C144.484467,12.136088 144.879013,18.309307 144.900787,24.483841 
	C144.937119,34.788147 144.734985,45.093296 144.444214,55.747978 
z"/>
<path fill="#E0CC74" opacity="1.000000" stroke="none" 
	d="
M265.581757,38.552616 
	C266.861969,39.253006 268.343506,40.274666 269.896362,42.015675 
	C271.187988,47.530651 268.607513,48.962673 264.435608,48.985470 
	C261.627014,49.000816 258.818420,49.015079 255.683716,48.966995 
	C254.552292,48.529518 253.746994,48.154869 253.001160,47.397663 
	C253.096649,46.759541 253.132690,46.503971 253.168732,46.248402 
	C255.426590,46.685150 257.666840,47.304321 259.945648,47.524269 
	C266.644623,48.170841 268.632172,45.162376 265.581757,38.552616 
z"/>
<path fill="#EFD975" opacity="1.000000" stroke="none" 
	d="
M117.957870,32.399788 
	C119.103981,31.981119 120.236961,31.909069 121.676331,32.277187 
	C122.635780,33.493439 123.288834,34.269520 123.941879,35.045593 
	C125.802361,37.742168 127.662842,40.438744 130.029999,43.233551 
	C131.067627,44.862316 131.598587,46.392853 132.049622,47.982262 
	C131.969711,48.041130 131.819992,48.171467 131.819992,48.171467 
	C127.194901,43.029778 122.569817,37.888092 117.957870,32.399788 
z"/>
<path fill="#E0CE76" opacity="1.000000" stroke="none" 
	d="
M277.483429,49.449703 
	C274.342010,56.088177 267.779755,59.602264 260.163269,58.694328 
	C258.210388,58.461533 256.267303,58.146168 254.084259,57.481384 
	C253.848816,57.094028 254.008438,56.957943 254.275864,56.962963 
	C254.721512,56.973698 254.899734,56.979416 255.401031,56.968269 
	C256.155029,56.932632 256.585938,56.913864 257.454895,56.926971 
	C262.430450,55.871353 267.088135,55.118561 271.453491,53.551521 
	C273.554962,52.797161 275.105225,50.507393 277.049133,49.047703 
	C277.193176,49.182495 277.483429,49.449703 277.483429,49.449703 
z"/>
<path fill="#D4C378" opacity="1.000000" stroke="none" 
	d="
M252.905609,46.048027 
	C253.132690,46.503971 253.096649,46.759541 252.662430,47.461418 
	C251.507126,48.607075 250.750015,49.306431 249.969269,50.328285 
	C249.923843,51.080833 249.902023,51.510883 249.704865,52.156105 
	C250.052826,53.268681 250.576126,54.166088 251.268555,55.272240 
	C251.937241,55.666798 252.436798,55.852615 252.965057,56.311081 
	C252.993790,56.766499 252.993820,56.949268 252.993851,57.132042 
	C250.850677,56.413731 248.707504,55.695419 246.412766,54.926308 
	C246.735809,51.176613 247.028229,47.782406 247.379913,43.700348 
	C249.468658,44.552624 251.055557,45.200138 252.905609,46.048027 
z"/>
<path fill="#FADE5D" opacity="1.000000" stroke="none" 
	d="
M251.099442,55.063499 
	C250.576126,54.166088 250.052826,53.268681 250.031418,52.159752 
	C251.098160,51.540752 251.662994,51.133270 252.227829,50.725792 
	C251.482849,50.485786 250.737885,50.245781 249.992905,50.005779 
	C250.750015,49.306431 251.507126,48.607075 252.602966,47.843971 
	C253.746994,48.154869 254.552292,48.529518 255.685242,49.367638 
	C256.347534,52.185772 256.682190,54.540436 257.016846,56.895096 
	C256.585938,56.913864 256.155029,56.932632 255.278397,56.866138 
	C254.515091,56.622719 254.240341,56.681740 254.008438,56.957943 
	C254.008438,56.957943 253.848816,57.094028 253.807617,57.190445 
	C253.766418,57.286865 253.356110,57.328526 253.174988,57.230282 
	C252.993820,56.949268 252.993790,56.766499 252.797150,56.095200 
	C252.100159,55.425610 251.599808,55.244553 251.099442,55.063499 
z"/>
<path fill="#E0CE76" opacity="1.000000" stroke="none" 
	d="
M276.942169,39.008938 
	C275.329620,36.490471 273.717072,33.972004 272.123840,31.085411 
	C278.820465,34.690746 280.689636,40.449062 277.768982,49.189003 
	C277.483429,49.449703 277.193176,49.182495 277.077087,48.603321 
	C276.954712,45.019077 276.948456,42.014008 276.942169,39.008938 
z"/>
<path fill="#DECD7A" opacity="1.000000" stroke="none" 
	d="
M212.983765,20.604818 
	C211.192108,17.734934 209.342163,14.536906 207.711868,11.230572 
	C206.795013,9.371136 206.248840,7.319662 203.158066,8.819603 
	C203.528259,7.223507 204.237320,5.513647 204.946396,3.803786 
	C205.388519,3.795531 205.830627,3.787275 206.272751,3.779019 
	C208.520950,9.263135 210.769135,14.747252 212.983765,20.604818 
z"/>
<path fill="#423A16" opacity="1.000000" stroke="none" 
	d="
M32.164925,25.613865 
	C31.582087,26.017431 31.127748,26.109686 30.331707,26.126640 
	C29.967314,25.873280 29.944622,25.695221 29.940493,24.865904 
	C30.059513,21.511009 30.159973,18.807371 30.260433,16.103733 
	C30.260433,16.103733 30.185162,16.108109 30.216776,16.129110 
	C33.366795,16.198744 36.485203,16.247377 39.791931,16.671062 
	C39.737656,17.257423 39.501045,17.645882 39.251595,17.654310 
	C31.647266,17.911213 31.647070,17.905401 32.164925,25.613865 
z"/>
<path fill="#DECD7A" opacity="1.000000" stroke="none" 
	d="
M200.576477,14.061733 
	C199.295288,18.041283 197.746185,22.250383 195.861969,26.562813 
	C197.120758,22.541187 198.714645,18.416237 200.576477,14.061733 
z"/>
<path fill="#E0CE76" opacity="1.000000" stroke="none" 
	d="
M270.926941,29.639898 
	C267.297943,28.329817 263.472137,26.728127 259.762054,24.783092 
	C263.495209,26.075932 267.112671,27.712111 270.926941,29.639898 
z"/>
<path fill="#EBD481" opacity="1.000000" stroke="none" 
	d="
M19.180954,19.445026 
	C19.664932,18.997414 20.034668,18.993279 20.680557,18.971886 
	C20.956715,18.954628 20.998354,19.015125 21.012163,19.428745 
	C21.036795,20.867100 21.047617,21.891832 21.058439,22.916565 
	C20.687614,24.854227 20.316792,26.791887 19.623644,28.899841 
	C19.223116,26.009588 19.144913,22.949045 19.180954,19.445026 
z"/>
<path fill="#463A15" opacity="1.000000" stroke="none" 
	d="
M80.642754,57.154755 
	C80.234467,54.108852 80.068565,51.079552 79.813759,47.609211 
	C83.700226,50.086319 82.122887,53.648537 80.642754,57.154755 
z"/>
<path fill="#423A16" opacity="1.000000" stroke="none" 
	d="
M46.551067,13.966291 
	C46.082649,11.345199 45.979031,8.627980 45.912609,5.539190 
	C48.583771,7.811823 48.565262,10.750474 46.551067,13.966291 
z"/>
<path fill="#DDCA77" opacity="1.000000" stroke="none" 
	d="
M120.066849,19.611811 
	C118.055801,17.813053 116.074570,15.671044 114.133179,13.154207 
	C116.147568,14.942438 118.122124,17.105499 120.066849,19.611811 
z"/>
<path fill="#DECD7A" opacity="1.000000" stroke="none" 
	d="
M190.311279,38.800148 
	C189.912155,40.981884 189.225037,43.358051 188.176178,45.800465 
	C188.550720,43.576000 189.286987,41.285286 190.311279,38.800148 
z"/>
<path fill="#DECD7A" opacity="1.000000" stroke="none" 
	d="
M219.445251,36.318138 
	C218.340668,34.323776 217.201126,31.963224 216.112930,29.204353 
	C217.246277,31.188005 218.328278,33.569977 219.445251,36.318138 
z"/>
<path fill="#DDCA77" opacity="1.000000" stroke="none" 
	d="
M113.165909,11.490211 
	C111.865936,10.394082 110.479698,8.977911 109.125526,7.184489 
	C110.464935,8.261549 111.772293,9.715858 113.165909,11.490211 
z"/>
<path fill="#463A15" opacity="1.000000" stroke="none" 
	d="
M74.172134,58.388069 
	C75.388359,58.115860 76.811020,58.083443 78.642792,58.176659 
	C77.494118,58.410816 75.936340,58.519344 74.172134,58.388069 
z"/>
<path fill="#DECD7A" opacity="1.000000" stroke="none" 
	d="
M194.369232,28.900772 
	C194.280609,30.044764 193.935867,31.420183 193.230240,32.917061 
	C193.283936,31.736410 193.698517,30.434303 194.369232,28.900772 
z"/>
<path fill="#DECD7A" opacity="1.000000" stroke="none" 
	d="
M202.597839,9.053070 
	C202.403214,10.413148 201.940369,11.997918 201.144836,13.738762 
	C201.317978,12.355812 201.823792,10.816788 202.597839,9.053070 
z"/>
<path fill="#E7D26B" opacity="1.000000" stroke="none" 
	d="
M316.180664,57.910919 
	C316.838257,57.645565 317.801636,57.456741 318.877930,57.577774 
	C318.156036,57.920902 317.321259,57.954174 316.180664,57.910919 
z"/>
<path fill="#423A16" opacity="1.000000" stroke="none" 
	d="
M43.168205,17.233402 
	C43.741810,16.639389 44.475464,16.269997 45.550804,15.937489 
	C45.037743,16.468922 44.182999,16.963470 43.168205,17.233402 
z"/>
<path fill="#DFCD77" opacity="1.000000" stroke="none" 
	d="
M311.119690,53.402351 
	C311.696655,53.496944 312.295929,53.942646 312.898560,55.151138 
	C312.852203,56.228806 312.802460,56.543682 312.752716,56.858562 
	C312.215790,55.823528 311.678864,54.788494 311.119690,53.402351 
z"/>
<path fill="#DDCA77" opacity="1.000000" stroke="none" 
	d="
M107.205673,6.278005 
	C107.005692,5.824463 107.034744,5.574335 107.112442,4.949627 
	C107.787575,5.128236 108.414062,5.681426 109.120148,6.542527 
	C108.611397,6.727431 108.023048,6.604424 107.205673,6.278005 
z"/>
<path fill="#E7D26B" opacity="1.000000" stroke="none" 
	d="
M312.812592,56.996197 
	C312.802460,56.543682 312.852203,56.228806 312.978821,55.441692 
	C313.593292,55.672115 314.130890,56.374779 314.621948,57.447506 
	C314.575439,57.817574 314.522705,57.746243 314.222168,57.533009 
	C313.668549,57.231796 313.415436,57.143822 313.162354,57.055843 
	C313.162354,57.055843 312.872467,57.133831 312.812592,56.996197 
z"/>
<path fill="#DECD7A" opacity="1.000000" stroke="none" 
	d="
M191.556244,35.994629 
	C191.600327,36.670681 191.381012,37.553127 190.843323,38.597717 
	C190.780914,37.906918 191.036880,37.053967 191.556244,35.994629 
z"/>
<path fill="#DECD7A" opacity="1.000000" stroke="none" 
	d="
M195.317200,26.853382 
	C195.409134,27.254889 195.277817,27.856113 194.856262,28.609097 
	C194.742004,28.191603 194.917969,27.622353 195.317200,26.853382 
z"/>
<path fill="#DECD7A" opacity="1.000000" stroke="none" 
	d="
M216.201355,28.561390 
	C215.863037,28.323296 215.506622,27.732494 215.158600,26.780226 
	C215.505768,27.015400 215.844513,27.612043 216.201355,28.561390 
z"/>
<path fill="#EFD975" opacity="1.000000" stroke="none" 
	d="
M115.986679,30.695528 
	C116.246796,30.540012 116.568253,30.623713 116.890030,30.918159 
	C116.890358,31.128906 116.415558,31.263920 116.415558,31.263920 
	C116.415558,31.263920 116.048027,30.934744 115.986679,30.695528 
z"/>
<path fill="#DECD7A" opacity="1.000000" stroke="none" 
	d="
M192.504639,33.568230 
	C192.628021,34.040947 192.470016,34.746880 192.028915,35.694023 
	C191.904984,35.223976 192.064133,34.512714 192.504639,33.568230 
z"/>
<path fill="#DFCD77" opacity="1.000000" stroke="none" 
	d="
M313.315430,57.219074 
	C313.415436,57.143822 313.668549,57.231796 314.262329,57.539528 
	C314.224854,57.633621 313.846680,57.507965 313.315430,57.219074 
z"/>
<path fill="#E6CF69" opacity="1.000000" stroke="none" 
	d="
M19.200768,57.308712 
	C19.498615,57.182892 19.652988,57.310955 19.815605,57.638039 
	C19.872047,57.779007 19.437784,57.784100 19.437784,57.784100 
	C19.437784,57.784100 19.105488,57.504543 19.200768,57.308712 
z"/>
<path fill="#5C501D" opacity="1.000000" stroke="none" 
	d="
M143.464722,58.011475 
	C143.577576,57.961716 143.735794,57.925461 143.894012,57.889206 
	C143.854782,57.948895 143.815552,58.008579 143.596588,58.031990 
	C143.416870,57.995708 143.510086,58.024979 143.464722,58.011475 
z"/>
<path fill="#E6CF69" opacity="1.000000" stroke="none" 
	d="
M19.205072,52.276405 
	C19.573524,52.245300 19.636179,52.478809 19.413809,52.848747 
	C19.314077,52.939583 19.084564,52.495419 19.205072,52.276405 
z"/>
<path fill="#DDCA77" opacity="1.000000" stroke="none" 
	d="
M114.191109,12.589393 
	C113.952835,12.665836 113.656693,12.454143 113.260269,11.982271 
	C113.484406,11.915147 113.808823,12.108200 114.191109,12.589393 
z"/>
<path fill="#E6CF69" opacity="1.000000" stroke="none" 
	d="
M19.226322,49.276108 
	C19.570704,49.225227 19.646404,49.452797 19.459469,49.830711 
	C19.369047,49.927261 19.129852,49.500771 19.226322,49.276108 
z"/>
<path fill="#EFD975" opacity="1.000000" stroke="none" 
	d="
M132.882507,49.115944 
	C132.534180,49.009556 132.248810,48.836979 131.891724,48.417934 
	C131.819992,48.171467 131.969711,48.041130 132.229111,48.122513 
	C132.717499,48.409367 132.909409,48.645035 133.064255,48.910896 
	C133.064255,48.910896 132.945480,49.049759 132.882507,49.115944 
z"/>
<path fill="#0B0200" opacity="1.000000" stroke="none" 
	d="
M202.033310,42.408417 
	C201.733200,42.163658 201.433090,41.918896 201.470886,41.207886 
	C202.894943,37.867443 203.981094,34.993244 205.339844,32.118843 
	C206.046570,32.433609 206.480682,32.748573 206.914780,33.063545 
	C206.914780,33.063545 206.999268,33.000183 206.980621,33.449677 
	C208.275742,38.448112 208.470398,42.348862 202.033310,42.408417 
z"/>
<path fill="#CFBA62" opacity="1.000000" stroke="none" 
	d="
M202.367676,42.604256 
	C208.470398,42.348862 208.275742,38.448112 206.940796,33.484055 
	C208.138855,35.417534 209.577194,37.691444 210.421356,40.167896 
	C210.629044,40.777195 209.044785,42.627666 208.028336,42.881184 
	C206.363251,43.296486 204.488403,42.870979 202.367676,42.604256 
z"/>
<path fill="#EAD473" opacity="1.000000" stroke="none" 
	d="
M205.067261,32.119049 
	C203.981094,34.993244 202.894943,37.867443 201.468643,40.911072 
	C202.246002,37.102360 203.363495,33.124222 204.480972,29.146080 
	C205.290878,29.557314 206.100784,29.968548 206.657623,30.713961 
	C205.958801,31.405107 205.513031,31.762079 205.067261,32.119049 
z"/>
<path fill="#CFBA62" opacity="1.000000" stroke="none" 
	d="
M205.339859,32.118843 
	C205.513031,31.762079 205.958801,31.405107 206.704193,31.013485 
	C207.001328,31.443359 206.998840,31.907885 206.955566,32.717976 
	C206.480682,32.748573 206.046570,32.433609 205.339859,32.118843 
z"/>
<path fill="#FCDF55" opacity="1.000000" stroke="none" 
	d="
M176.397415,53.465195 
	C174.462936,53.790634 172.368286,53.686928 170.665863,54.453869 
	C166.834885,56.179722 163.328354,57.215633 159.666779,54.017879 
	C158.929718,53.374180 157.191635,54.009586 155.996887,53.718987 
	C154.843307,53.438400 153.454269,52.977856 152.811966,52.116604 
	C152.322723,51.460594 152.487991,49.387173 152.985352,49.124489 
	C153.925903,48.627739 155.370926,48.744888 156.507568,49.017963 
	C162.347626,50.421017 168.094925,51.400269 173.661057,47.406197 
	C175.027512,48.457314 176.009644,49.226376 176.991791,49.995438 
	C176.773804,50.894363 176.555817,51.793289 176.410934,53.044693 
	C176.484024,53.397167 176.415268,53.431232 176.397415,53.465195 
z"/>
<path fill="#FADD51" opacity="1.000000" stroke="none" 
	d="
M169.471375,35.589989 
	C165.739792,33.761322 162.266068,32.246891 158.989197,30.385864 
	C157.491364,29.535212 156.381363,28.001682 155.095459,26.777868 
	C155.244110,26.257114 155.392761,25.736361 155.541412,25.215607 
	C157.762283,25.657249 160.088684,25.820677 162.176590,26.612755 
	C164.644318,27.548914 166.815186,29.265186 169.280777,30.210020 
	C172.166077,31.315685 174.982529,32.173302 174.486008,36.868061 
	C172.793350,36.467941 171.301498,36.115295 169.471375,35.589989 
z"/>
<path fill="#FCDC54" opacity="1.000000" stroke="none" 
	d="
M177.179749,49.688332 
	C176.009644,49.226376 175.027512,48.457314 174.022247,47.328323 
	C174.101517,45.423698 173.936356,43.796650 174.379517,42.356846 
	C174.847153,40.837612 175.895142,39.497009 176.689575,38.078362 
	C177.781540,39.408527 179.846222,40.805885 179.759964,42.054680 
	C179.588303,44.540081 178.233627,46.943779 177.179749,49.688332 
z"/>
<path fill="#271E07" opacity="1.000000" stroke="none" 
	d="
M300.991333,43.026859 
	C298.352600,43.396137 297.385529,42.308983 298.193939,39.756439 
	C298.916840,37.473854 299.692078,35.207848 300.712524,32.324333 
	C301.368469,31.228361 301.756134,30.742582 302.333435,30.019220 
	C303.726013,33.952450 305.001770,37.555660 306.357208,41.384056 
	C304.314514,42.009445 302.652924,42.518154 300.991333,43.026859 
z"/>
<path fill="#E9D46B" opacity="1.000000" stroke="none" 
	d="
M301.263062,43.246555 
	C302.652924,42.518154 304.314514,42.009445 306.357208,41.384056 
	C305.001770,37.555660 303.726013,33.952450 302.333435,30.019220 
	C301.756134,30.742582 301.368469,31.228361 300.748596,31.930059 
	C300.195740,31.202930 299.875061,30.259882 299.554352,29.316833 
	C300.881744,29.136934 303.252228,28.529806 303.379822,28.841324 
	C305.245514,33.396511 308.029053,38.066963 308.057220,42.725292 
	C308.079041,46.332008 303.898193,43.762924 301.263062,43.246555 
z"/>
<path fill="#E7D26B" opacity="1.000000" stroke="none" 
	d="
M284.733917,56.754173 
	C284.246033,56.794674 283.553864,56.634224 282.882233,56.267860 
	C283.445038,56.225708 283.987366,56.389465 284.733917,56.754173 
z"/>
<path fill="#FADD5B" opacity="1.000000" stroke="none" 
	d="
M133.400772,48.993065 
	C132.909409,48.645035 132.717499,48.409367 132.309021,48.063641 
	C131.598587,46.392853 131.067627,44.862316 130.273132,43.189560 
	C130.491440,41.142975 130.973297,39.238609 131.455154,37.334244 
	C131.665558,37.518131 131.875946,37.702019 132.086349,37.885906 
	C133.054779,36.815338 134.023209,35.744766 134.993683,34.338524 
	C135.012131,33.556698 135.028519,33.110535 135.377319,32.230156 
	C140.971283,28.187599 138.570816,22.786741 138.746353,18.052847 
	C138.770447,17.402847 136.950058,16.684452 135.983612,15.997723 
	C135.975464,13.926434 135.506363,11.701333 136.127457,9.840023 
	C136.516479,8.674213 138.545715,8.055729 139.839005,7.191665 
	C140.570511,8.290379 141.864090,9.352559 141.938278,10.493996 
	C142.300735,16.070690 142.423904,21.667812 142.470398,27.259052 
	C142.544250,36.141960 142.490112,45.025932 142.490112,54.783562 
	C139.327805,52.721199 136.532547,50.898216 133.400772,48.993065 
z"/>
<path fill="#FADD5B" opacity="1.000000" stroke="none" 
	d="
M124.244530,34.902122 
	C123.288834,34.269520 122.635780,33.493439 121.942734,32.384666 
	C123.694313,32.051971 125.485893,32.051971 127.277473,32.051971 
	C127.420197,32.335686 127.562912,32.619396 127.705635,32.903111 
	C126.652817,33.521622 125.599998,34.140133 124.244530,34.902122 
z"/>
<path fill="#FBDF56" opacity="1.000000" stroke="none" 
	d="
M22.262730,14.171280 
	C21.204744,9.144760 23.343702,7.479753 28.112352,7.901804 
	C31.840590,8.231773 35.643673,7.693666 39.378235,7.988293 
	C40.496082,8.076483 41.495201,9.669557 42.548714,10.573177 
	C41.544796,11.487677 40.674866,12.908119 39.510429,13.216494 
	C36.656887,13.972193 33.667461,14.214792 30.361946,14.817909 
	C27.422060,15.774021 24.752783,17.733160 22.262730,14.171280 
z"/>
<path fill="#E6CF69" opacity="1.000000" stroke="none" 
	d="
M29.957424,16.296473 
	C30.159973,18.807371 30.059513,21.511009 29.882481,24.602978 
	C28.376858,22.181841 26.985771,19.371695 29.957424,16.296473 
z"/>
<path fill="#E6CF69" opacity="1.000000" stroke="none" 
	d="
M21.259293,22.683674 
	C21.047617,21.891832 21.036795,20.867100 21.032515,19.459312 
	C21.179419,20.201099 21.319782,21.325941 21.259293,22.683674 
z"/>
<path fill="#FCDE5A" opacity="1.000000" stroke="none" 
	d="
M276.590210,38.983246 
	C276.948456,42.014008 276.954712,45.019077 276.933044,48.468529 
	C275.105225,50.507393 273.554962,52.797161 271.453491,53.551521 
	C267.088135,55.118561 262.430450,55.871353 257.454895,56.926971 
	C256.682190,54.540436 256.347534,52.185772 256.011353,49.430466 
	C258.818420,49.015079 261.627014,49.000816 264.435608,48.985470 
	C268.607513,48.962673 271.187988,47.530651 269.971863,42.369652 
	C270.595184,40.530643 271.214294,39.057003 271.959259,37.283794 
	C273.376038,37.837982 274.807159,38.397766 276.590210,38.983246 
z"/>
<path fill="#FCDE5C" opacity="1.000000" stroke="none" 
	d="
M92.604004,55.666935 
	C88.217667,56.697834 86.888443,55.019073 86.938156,51.049492 
	C87.098801,38.221405 86.983627,25.389982 87.002876,12.559889 
	C87.006630,10.059711 86.715500,7.183419 90.423264,7.098115 
	C94.132683,7.012774 94.017776,9.809360 94.020584,12.369950 
	C94.034782,25.339598 94.065720,38.309441 93.992638,51.278660 
	C93.984718,52.684750 93.344589,54.087280 92.604004,55.666935 
z"/>
<path fill="#FADE5E" opacity="1.000000" stroke="none" 
	d="
M63.956779,47.047981 
	C67.389320,47.780125 70.760841,48.566933 74.177078,48.915699 
	C76.704651,49.173740 79.289444,49.433914 78.797646,52.586914 
	C78.549042,54.180775 76.707481,56.643536 75.409889,56.760670 
	C70.129471,57.237339 64.780769,56.976383 59.457405,56.952534 
	C55.046482,56.932766 54.320618,53.566029 54.275394,50.410271 
	C54.131073,40.339169 54.361240,30.263161 54.382683,20.188913 
	C54.388287,17.555439 53.945309,14.908295 54.105167,12.291672 
	C54.246937,9.971205 53.841476,7.041511 57.715782,6.965981 
	C61.481354,6.892572 62.052334,9.113325 62.036045,12.142489 
	C61.986843,21.293001 61.950832,30.445042 62.081596,39.594028 
	C62.113998,41.860664 62.797550,44.118000 63.409164,46.658920 
	C63.636543,46.938229 63.914944,46.914696 63.956779,47.047981 
z"/>
<path fill="#F9DC5D" opacity="1.000000" stroke="none" 
	d="
M135.854996,16.234043 
	C136.950058,16.684452 138.770447,17.402847 138.746353,18.052847 
	C138.570816,22.786741 140.971283,28.187599 135.393127,31.895712 
	C135.293137,26.820442 135.509750,21.645403 135.854996,16.234043 
z"/>
<path fill="#D4C378" opacity="1.000000" stroke="none" 
	d="
M254.275864,56.962963 
	C254.240341,56.681740 254.515091,56.622719 254.955322,56.883007 
	C254.899734,56.979416 254.721512,56.973698 254.275864,56.962963 
z"/>
<path fill="#FCDE5A" opacity="1.000000" stroke="none" 
	d="
M249.969269,50.328278 
	C250.737885,50.245781 251.482849,50.485786 252.227829,50.725792 
	C251.662994,51.133270 251.098160,51.540752 250.206757,51.944584 
	C249.902023,51.510883 249.923843,51.080833 249.969269,50.328278 
z"/>
<path fill="#E0CE76" opacity="1.000000" stroke="none" 
	d="
M251.268555,55.272240 
	C251.599808,55.244553 252.100159,55.425610 252.768433,55.822548 
	C252.436798,55.852615 251.937241,55.666798 251.268555,55.272240 
z"/>
</svg>